G75*
%MOIN*%
%OFA0B0*%
%FSLAX24Y24*%
%IPPOS*%
%LPD*%
%AMOC8*
5,1,8,0,0,1.08239X$1,22.5*
%
%ADD10C,0.0000*%
%ADD11C,0.1000*%
%ADD12OC8,0.1000*%
%ADD13C,0.0740*%
%ADD14C,0.0650*%
%ADD15R,0.0740X0.0740*%
%ADD16OC8,0.0740*%
%ADD17C,0.0554*%
%ADD18R,0.0356X0.0356*%
%ADD19C,0.0160*%
%ADD20C,0.0240*%
%ADD21C,0.0860*%
%ADD22C,0.0320*%
D10*
X000142Y000220D02*
X000142Y020966D01*
X022637Y020966D01*
X022637Y000220D01*
X000142Y000220D01*
D11*
X003892Y010095D03*
X018892Y009970D03*
D12*
X018892Y011970D03*
X003892Y012095D03*
D13*
X001267Y011970D03*
X001267Y010970D03*
X001267Y009970D03*
X001267Y008970D03*
X001267Y012970D03*
X001267Y013970D03*
X001377Y015940D03*
X003157Y015940D03*
X003157Y018500D03*
X001377Y018500D03*
X021517Y013970D03*
X021517Y012970D03*
X021517Y011970D03*
X021517Y010970D03*
X021517Y009970D03*
X021517Y008970D03*
D14*
X007267Y013470D03*
X007267Y015470D03*
D15*
X006767Y017970D03*
D16*
X007767Y017970D03*
X008767Y017970D03*
X008767Y018970D03*
X007767Y018970D03*
X006767Y018970D03*
D17*
X014401Y018970D03*
X016133Y018970D03*
D18*
X012767Y014970D03*
X013017Y013970D03*
X012767Y012970D03*
X011767Y012970D03*
X011517Y014720D03*
X010267Y017220D03*
X008517Y015470D03*
X010267Y010720D03*
X010767Y007470D03*
X012017Y007470D03*
X012267Y005720D03*
X010517Y005720D03*
X010517Y003720D03*
X012267Y003720D03*
X013267Y001970D03*
X013767Y001970D03*
X009517Y001970D03*
X009017Y001970D03*
X004517Y000720D03*
X004267Y001470D03*
X003767Y001470D03*
X003267Y001470D03*
X002767Y001470D03*
X002017Y002470D03*
X002017Y002970D03*
X002017Y003470D03*
X000517Y003220D03*
X000517Y003720D03*
X000517Y004220D03*
X000517Y004720D03*
X000517Y005220D03*
X000517Y005720D03*
X000517Y006220D03*
X000517Y006720D03*
X000517Y007220D03*
X002017Y006970D03*
X002017Y006470D03*
X002017Y005970D03*
X000517Y002720D03*
X000517Y002220D03*
X005767Y007220D03*
X005767Y007720D03*
X015767Y011720D03*
X019017Y013220D03*
X017017Y007720D03*
X017017Y007220D03*
X020767Y006970D03*
X020767Y006470D03*
X020767Y005970D03*
X022267Y005720D03*
X022267Y005220D03*
X022267Y004720D03*
X022267Y004220D03*
X022267Y003720D03*
X022267Y003220D03*
X022267Y002720D03*
X022267Y002220D03*
X020767Y002470D03*
X020767Y002970D03*
X020767Y003470D03*
X020017Y001470D03*
X019517Y001470D03*
X019017Y001470D03*
X018517Y001470D03*
X018267Y000720D03*
X022267Y006220D03*
X022267Y006720D03*
X022267Y007220D03*
D19*
X021517Y011970D02*
X021017Y011970D01*
X019767Y013220D01*
X019017Y013220D01*
X021517Y013970D02*
X013017Y013970D01*
X012767Y012970D02*
X012767Y008220D01*
X012017Y007470D01*
X010767Y007470D02*
X010767Y012470D01*
X011267Y012970D01*
X011767Y012970D01*
X010267Y013470D02*
X010267Y011720D01*
X004767Y011720D01*
X004267Y011220D01*
X002517Y011220D01*
X001767Y011970D01*
X001267Y011970D01*
X008517Y015470D02*
X008517Y015970D01*
X008767Y016220D01*
X008767Y017970D01*
X009767Y017720D02*
X009767Y019220D01*
X009267Y019720D01*
X008267Y019720D01*
X007767Y019220D01*
X007767Y018970D01*
X009767Y017720D02*
X010267Y017220D01*
X011517Y014720D02*
X010267Y013470D01*
X010267Y011720D02*
X010267Y010720D01*
X010267Y005970D01*
X010517Y005720D01*
X012267Y005720D01*
X012267Y003720D01*
X010517Y003720D02*
X010517Y005720D01*
D20*
X010849Y005999D02*
X011934Y005999D01*
X011916Y005980D02*
X010867Y005980D01*
X010769Y006078D01*
X010527Y006078D01*
X010527Y007112D01*
X011019Y007112D01*
X011125Y007217D01*
X011125Y007723D01*
X011027Y007821D01*
X011027Y012362D01*
X011374Y012710D01*
X011416Y012710D01*
X011514Y012612D01*
X012019Y012612D01*
X012125Y012717D01*
X012125Y013223D01*
X012019Y013328D01*
X011514Y013328D01*
X011416Y013230D01*
X011215Y013230D01*
X011119Y013190D01*
X011046Y013117D01*
X010546Y012617D01*
X010527Y012570D01*
X010527Y013362D01*
X011526Y014362D01*
X011769Y014362D01*
X011875Y014467D01*
X011875Y014973D01*
X011769Y015078D01*
X011264Y015078D01*
X011159Y014973D01*
X011159Y014730D01*
X010046Y013617D01*
X010007Y013522D01*
X010007Y011980D01*
X004715Y011980D01*
X004619Y011940D01*
X004612Y011933D01*
X004612Y012095D01*
X003892Y012095D01*
X004612Y012095D01*
X004612Y012393D01*
X004190Y012815D01*
X003892Y012815D01*
X003892Y012095D01*
X003892Y012095D01*
X003892Y012095D01*
X003892Y012815D01*
X003593Y012815D01*
X003172Y012393D01*
X003172Y012095D01*
X003172Y011797D01*
X003488Y011480D01*
X002624Y011480D01*
X001987Y012117D01*
X001987Y012117D01*
X001914Y012190D01*
X001818Y012230D01*
X001754Y012230D01*
X001733Y012282D01*
X001578Y012436D01*
X001497Y012470D01*
X001578Y012504D01*
X001733Y012658D01*
X001817Y012861D01*
X001817Y013079D01*
X001733Y013282D01*
X001578Y013436D01*
X001497Y013470D01*
X001578Y013504D01*
X001733Y013658D01*
X001817Y013861D01*
X001817Y014079D01*
X001733Y014282D01*
X001578Y014436D01*
X001376Y014520D01*
X001157Y014520D01*
X000955Y014436D01*
X000800Y014282D01*
X000717Y014079D01*
X000717Y013861D01*
X000800Y013658D01*
X000955Y013504D01*
X001037Y013470D01*
X000955Y013436D01*
X000800Y013282D01*
X000717Y013079D01*
X000717Y012861D01*
X000800Y012658D01*
X000955Y012504D01*
X001037Y012470D01*
X000955Y012436D01*
X000800Y012282D01*
X000717Y012079D01*
X000717Y011861D01*
X000800Y011658D01*
X000955Y011504D01*
X000988Y011490D01*
X000957Y011475D01*
X000882Y011420D01*
X000817Y011354D01*
X000762Y011279D01*
X000720Y011196D01*
X000691Y011108D01*
X000677Y011016D01*
X000677Y010970D01*
X001267Y010970D01*
X001857Y010970D01*
X001857Y011016D01*
X001842Y011108D01*
X001813Y011196D01*
X001771Y011279D01*
X001717Y011354D01*
X001651Y011420D01*
X001576Y011475D01*
X001545Y011490D01*
X001578Y011504D01*
X001722Y011647D01*
X002369Y011000D01*
X002465Y010960D01*
X004318Y010960D01*
X004414Y011000D01*
X004487Y011073D01*
X004874Y011460D01*
X010007Y011460D01*
X010007Y011071D01*
X009909Y010973D01*
X009909Y010467D01*
X010007Y010369D01*
X010007Y005918D01*
X010046Y005823D01*
X010159Y005710D01*
X010159Y005467D01*
X010257Y005369D01*
X010257Y004071D01*
X010159Y003973D01*
X010159Y003467D01*
X010264Y003362D01*
X010769Y003362D01*
X010875Y003467D01*
X010875Y003973D01*
X010777Y004071D01*
X010777Y005369D01*
X010867Y005460D01*
X011916Y005460D01*
X012007Y005369D01*
X012007Y004071D01*
X011909Y003973D01*
X011909Y003467D01*
X012014Y003362D01*
X012519Y003362D01*
X012625Y003467D01*
X012625Y003973D01*
X012527Y004071D01*
X012527Y005369D01*
X012625Y005467D01*
X012625Y005973D01*
X012519Y006078D01*
X012014Y006078D01*
X011916Y005980D01*
X012599Y005999D02*
X018657Y005999D01*
X018657Y005760D02*
X012625Y005760D01*
X012625Y005522D02*
X018657Y005522D01*
X018657Y005283D02*
X012527Y005283D01*
X012527Y005045D02*
X018657Y005045D01*
X018657Y004806D02*
X012527Y004806D01*
X012527Y004568D02*
X018657Y004568D01*
X018657Y004329D02*
X012527Y004329D01*
X012527Y004091D02*
X018657Y004091D01*
X018657Y003852D02*
X012625Y003852D01*
X012625Y003614D02*
X018657Y003614D01*
X018657Y003375D02*
X012532Y003375D01*
X012001Y003375D02*
X010782Y003375D01*
X010875Y003614D02*
X011909Y003614D01*
X011909Y003852D02*
X010875Y003852D01*
X010777Y004091D02*
X012007Y004091D01*
X012007Y004329D02*
X010777Y004329D01*
X010777Y004568D02*
X012007Y004568D01*
X012007Y004806D02*
X010777Y004806D01*
X010777Y005045D02*
X012007Y005045D01*
X012007Y005283D02*
X010777Y005283D01*
X010257Y005283D02*
X004127Y005283D01*
X004127Y005045D02*
X010257Y005045D01*
X010257Y004806D02*
X004127Y004806D01*
X004127Y004568D02*
X010257Y004568D01*
X010257Y004329D02*
X004127Y004329D01*
X004127Y004091D02*
X010257Y004091D01*
X010159Y003852D02*
X004127Y003852D01*
X004127Y003614D02*
X010159Y003614D01*
X010251Y003375D02*
X004127Y003375D01*
X004127Y003137D02*
X018657Y003137D01*
X018657Y002898D02*
X004127Y002898D01*
X004127Y002660D02*
X018657Y002660D01*
X018657Y002421D02*
X004127Y002421D01*
X004127Y002310D02*
X004127Y008341D01*
X004034Y008566D01*
X002112Y010487D01*
X001888Y010580D01*
X001711Y010580D01*
X001717Y010586D01*
X001771Y010661D01*
X001813Y010744D01*
X001842Y010832D01*
X001857Y010924D01*
X001857Y010970D01*
X001267Y010970D01*
X001267Y010970D01*
X000677Y010970D01*
X000677Y010924D01*
X000691Y010832D01*
X000720Y010744D01*
X000762Y010661D01*
X000817Y010586D01*
X000882Y010520D01*
X000925Y010489D01*
X000921Y010487D01*
X000750Y010316D01*
X000657Y010091D01*
X000657Y009849D01*
X000750Y009624D01*
X000921Y009453D01*
X000958Y009438D01*
X000955Y009436D01*
X000800Y009282D01*
X000717Y009079D01*
X000717Y008861D01*
X000800Y008658D01*
X000955Y008504D01*
X001157Y008420D01*
X001376Y008420D01*
X001578Y008504D01*
X001733Y008658D01*
X001817Y008861D01*
X001817Y009057D01*
X002907Y007967D01*
X002907Y002310D01*
X002699Y002310D01*
X002574Y002258D01*
X002478Y002163D01*
X002427Y002038D01*
X002427Y001741D01*
X002409Y001723D01*
X002409Y001217D01*
X002514Y001112D01*
X004519Y001112D01*
X004625Y001217D01*
X004625Y001630D01*
X008746Y001630D01*
X008764Y001612D01*
X009769Y001612D01*
X009875Y001717D01*
X009875Y002223D01*
X009769Y002328D01*
X008764Y002328D01*
X008746Y002310D01*
X004127Y002310D01*
X004625Y001467D02*
X018159Y001467D01*
X018159Y001630D02*
X018159Y001217D01*
X018264Y001112D01*
X020269Y001112D01*
X020375Y001217D01*
X020375Y001723D01*
X020357Y001741D01*
X020357Y002038D01*
X020305Y002163D01*
X020209Y002258D01*
X020084Y002310D01*
X019877Y002310D01*
X019877Y007967D01*
X020967Y009057D01*
X020967Y008861D01*
X021050Y008658D01*
X021205Y008504D01*
X021407Y008420D01*
X021626Y008420D01*
X021828Y008504D01*
X021983Y008658D01*
X022067Y008861D01*
X022067Y009079D01*
X021983Y009282D01*
X021828Y009436D01*
X021825Y009438D01*
X021862Y009453D01*
X022034Y009624D01*
X022127Y009849D01*
X022127Y010091D01*
X022034Y010316D01*
X021862Y010487D01*
X021858Y010489D01*
X021901Y010520D01*
X021967Y010586D01*
X022021Y010661D01*
X022063Y010744D01*
X022092Y010832D01*
X022107Y010924D01*
X022107Y010970D01*
X022107Y011016D01*
X022092Y011108D01*
X022063Y011196D01*
X022021Y011279D01*
X021967Y011354D01*
X021901Y011420D01*
X021826Y011475D01*
X021795Y011490D01*
X021828Y011504D01*
X021983Y011658D01*
X022067Y011861D01*
X022067Y012079D01*
X021983Y012282D01*
X021828Y012436D01*
X021747Y012470D01*
X021828Y012504D01*
X021983Y012658D01*
X022067Y012861D01*
X022067Y013079D01*
X021983Y013282D01*
X021828Y013436D01*
X021747Y013470D01*
X021828Y013504D01*
X021983Y013658D01*
X022067Y013861D01*
X022067Y014079D01*
X021983Y014282D01*
X021828Y014436D01*
X021626Y014520D01*
X021407Y014520D01*
X021205Y014436D01*
X021050Y014282D01*
X021029Y014230D01*
X013367Y014230D01*
X013269Y014328D01*
X012764Y014328D01*
X012659Y014223D01*
X012659Y013717D01*
X012764Y013612D01*
X013269Y013612D01*
X013367Y013710D01*
X021029Y013710D01*
X021050Y013658D01*
X021205Y013504D01*
X021287Y013470D01*
X021205Y013436D01*
X021050Y013282D01*
X020967Y013079D01*
X020967Y012861D01*
X021050Y012658D01*
X021205Y012504D01*
X021287Y012470D01*
X021205Y012436D01*
X021062Y012293D01*
X019914Y013440D01*
X019818Y013480D01*
X019367Y013480D01*
X019269Y013578D01*
X018764Y013578D01*
X018659Y013473D01*
X018659Y012967D01*
X018764Y012862D01*
X019269Y012862D01*
X019367Y012960D01*
X019659Y012960D01*
X020796Y011823D01*
X020869Y011750D01*
X020965Y011710D01*
X021029Y011710D01*
X021050Y011658D01*
X021205Y011504D01*
X021238Y011490D01*
X021207Y011475D01*
X021132Y011420D01*
X021067Y011354D01*
X021012Y011279D01*
X020970Y011196D01*
X020941Y011108D01*
X020927Y011016D01*
X020927Y010970D01*
X020927Y010924D01*
X020941Y010832D01*
X020970Y010744D01*
X021012Y010661D01*
X021067Y010586D01*
X021072Y010580D01*
X020895Y010580D01*
X020671Y010487D01*
X020500Y010316D01*
X018750Y008566D01*
X018657Y008341D01*
X018657Y002310D01*
X014037Y002310D01*
X014019Y002328D01*
X013014Y002328D01*
X012909Y002223D01*
X012909Y001717D01*
X013014Y001612D01*
X014019Y001612D01*
X014037Y001630D01*
X018159Y001630D01*
X018159Y001229D02*
X004625Y001229D01*
X002907Y002421D02*
X000362Y002421D01*
X000362Y002183D02*
X002498Y002183D01*
X002427Y001944D02*
X000362Y001944D01*
X000362Y001706D02*
X002409Y001706D01*
X002409Y001467D02*
X000362Y001467D01*
X000362Y001229D02*
X002409Y001229D01*
X002907Y002660D02*
X000362Y002660D01*
X000362Y002898D02*
X002907Y002898D01*
X002907Y003137D02*
X000362Y003137D01*
X000362Y003375D02*
X002907Y003375D01*
X002907Y003614D02*
X000362Y003614D01*
X000362Y003852D02*
X002907Y003852D01*
X002907Y004091D02*
X000362Y004091D01*
X000362Y004329D02*
X002907Y004329D01*
X002907Y004568D02*
X000362Y004568D01*
X000362Y004806D02*
X002907Y004806D01*
X002907Y005045D02*
X000362Y005045D01*
X000362Y005283D02*
X002907Y005283D01*
X002907Y005522D02*
X000362Y005522D01*
X000362Y005760D02*
X002907Y005760D01*
X002907Y005999D02*
X000362Y005999D01*
X000362Y006237D02*
X002907Y006237D01*
X002907Y006476D02*
X000362Y006476D01*
X000362Y006714D02*
X002907Y006714D01*
X002907Y006953D02*
X000362Y006953D01*
X000362Y007191D02*
X002907Y007191D01*
X002907Y007430D02*
X000362Y007430D01*
X000362Y007668D02*
X002907Y007668D01*
X002907Y007907D02*
X000362Y007907D01*
X000362Y008145D02*
X002729Y008145D01*
X002490Y008384D02*
X000362Y008384D01*
X000362Y008622D02*
X000837Y008622D01*
X000717Y008861D02*
X000362Y008861D01*
X000362Y009099D02*
X000725Y009099D01*
X000856Y009338D02*
X000362Y009338D01*
X000362Y009576D02*
X000798Y009576D01*
X000671Y009815D02*
X000362Y009815D01*
X000362Y010053D02*
X000657Y010053D01*
X000740Y010292D02*
X000362Y010292D01*
X000362Y010530D02*
X000872Y010530D01*
X000712Y010769D02*
X000362Y010769D01*
X000362Y011007D02*
X000677Y011007D01*
X000745Y011246D02*
X000362Y011246D01*
X000362Y011484D02*
X000976Y011484D01*
X000774Y011723D02*
X000362Y011723D01*
X000362Y011961D02*
X000717Y011961D01*
X000766Y012200D02*
X000362Y012200D01*
X000362Y012438D02*
X000959Y012438D01*
X000793Y012677D02*
X000362Y012677D01*
X000362Y012915D02*
X000717Y012915D01*
X000747Y013154D02*
X000362Y013154D01*
X000362Y013392D02*
X000911Y013392D01*
X000828Y013631D02*
X000362Y013631D01*
X000362Y013869D02*
X000717Y013869D01*
X000728Y014108D02*
X000362Y014108D01*
X000362Y014346D02*
X000865Y014346D01*
X000362Y014585D02*
X011013Y014585D01*
X011159Y014823D02*
X000362Y014823D01*
X000362Y015062D02*
X006961Y015062D01*
X006981Y015042D02*
X007166Y014965D01*
X007367Y014965D01*
X007553Y015042D01*
X007695Y015184D01*
X007772Y015370D01*
X007772Y015570D01*
X007695Y015756D01*
X007553Y015898D01*
X007367Y015975D01*
X007166Y015975D01*
X006981Y015898D01*
X006839Y015756D01*
X006762Y015570D01*
X006762Y015370D01*
X006839Y015184D01*
X006981Y015042D01*
X006790Y015300D02*
X000362Y015300D01*
X000362Y015539D02*
X000944Y015539D01*
X000927Y015556D02*
X000992Y015490D01*
X001067Y015435D01*
X001150Y015393D01*
X001239Y015365D01*
X001330Y015350D01*
X001377Y015350D01*
X001423Y015350D01*
X001515Y015365D01*
X001603Y015393D01*
X001686Y015435D01*
X001761Y015490D01*
X001827Y015556D01*
X001881Y015631D01*
X001923Y015714D01*
X001952Y015802D01*
X001967Y015894D01*
X001967Y015940D01*
X001377Y015940D01*
X001967Y015940D01*
X001967Y015986D01*
X001952Y016078D01*
X001923Y016166D01*
X001881Y016249D01*
X001827Y016324D01*
X001761Y016390D01*
X001686Y016445D01*
X001603Y016487D01*
X001515Y016515D01*
X001423Y016530D01*
X001377Y016530D01*
X001377Y015940D01*
X001377Y015940D01*
X001377Y015940D01*
X001377Y015350D01*
X001377Y015940D01*
X001377Y015940D01*
X001377Y016530D01*
X001330Y016530D01*
X001239Y016515D01*
X001150Y016487D01*
X001067Y016445D01*
X000992Y016390D01*
X000927Y016324D01*
X000872Y016249D01*
X000830Y016166D01*
X000801Y016078D01*
X000787Y015986D01*
X000787Y015940D01*
X000787Y015894D01*
X000801Y015802D01*
X000830Y015714D01*
X000872Y015631D01*
X000927Y015556D01*
X000809Y015777D02*
X000362Y015777D01*
X000362Y016016D02*
X000791Y016016D01*
X000787Y015940D02*
X001377Y015940D01*
X000787Y015940D01*
X000876Y016254D02*
X000362Y016254D01*
X000362Y016493D02*
X001168Y016493D01*
X001377Y016493D02*
X001377Y016493D01*
X001585Y016493D02*
X008507Y016493D01*
X008507Y016328D02*
X008369Y016190D01*
X008296Y016117D01*
X008257Y016022D01*
X008257Y015821D01*
X008159Y015723D01*
X008159Y015217D01*
X008264Y015112D01*
X008769Y015112D01*
X008875Y015217D01*
X008875Y015723D01*
X008777Y015821D01*
X008777Y015862D01*
X008987Y016073D01*
X009027Y016168D01*
X009027Y017452D01*
X009317Y017742D01*
X009317Y018198D01*
X009073Y018442D01*
X009357Y018726D01*
X009357Y018970D01*
X009357Y019214D01*
X009111Y019460D01*
X009159Y019460D01*
X009507Y019112D01*
X009507Y017668D01*
X009546Y017573D01*
X009619Y017500D01*
X009909Y017210D01*
X009909Y016967D01*
X010014Y016862D01*
X010519Y016862D01*
X010625Y016967D01*
X010625Y017473D01*
X010519Y017578D01*
X010276Y017578D01*
X010027Y017828D01*
X010027Y019272D01*
X009987Y019367D01*
X009914Y019440D01*
X009414Y019940D01*
X009318Y019980D01*
X008215Y019980D01*
X008119Y019940D01*
X008046Y019867D01*
X007699Y019520D01*
X007539Y019520D01*
X007267Y019248D01*
X006994Y019520D01*
X006539Y019520D01*
X006217Y019198D01*
X006217Y018742D01*
X006439Y018520D01*
X006322Y018520D01*
X006217Y018415D01*
X006217Y017525D01*
X006322Y017420D01*
X007211Y017420D01*
X007317Y017525D01*
X007317Y017642D01*
X007539Y017420D01*
X007994Y017420D01*
X008267Y017692D01*
X008507Y017452D01*
X008507Y016328D01*
X008433Y016254D02*
X003620Y016254D01*
X003623Y016252D02*
X003468Y016406D01*
X003266Y016490D01*
X003047Y016490D01*
X002845Y016406D01*
X002690Y016252D01*
X002607Y016049D01*
X002607Y015831D01*
X002690Y015628D01*
X002845Y015474D01*
X003047Y015390D01*
X003266Y015390D01*
X003468Y015474D01*
X003623Y015628D01*
X003707Y015831D01*
X003707Y016049D01*
X003623Y016252D01*
X003707Y016016D02*
X008257Y016016D01*
X008213Y015777D02*
X007674Y015777D01*
X007772Y015539D02*
X008159Y015539D01*
X008159Y015300D02*
X007743Y015300D01*
X007572Y015062D02*
X011247Y015062D01*
X011786Y015062D02*
X022417Y015062D01*
X022417Y015300D02*
X008875Y015300D01*
X008875Y015539D02*
X022417Y015539D01*
X022417Y015777D02*
X008820Y015777D01*
X008930Y016016D02*
X022417Y016016D01*
X022417Y016254D02*
X009027Y016254D01*
X009027Y016493D02*
X022417Y016493D01*
X022417Y016731D02*
X009027Y016731D01*
X009027Y016970D02*
X009909Y016970D01*
X009909Y017208D02*
X009027Y017208D01*
X009027Y017447D02*
X009672Y017447D01*
X009507Y017685D02*
X009260Y017685D01*
X009317Y017924D02*
X009507Y017924D01*
X009507Y018162D02*
X009317Y018162D01*
X009507Y018401D02*
X009114Y018401D01*
X009270Y018639D02*
X009507Y018639D01*
X009507Y018878D02*
X009357Y018878D01*
X009357Y018970D02*
X008767Y018970D01*
X009357Y018970D01*
X009357Y019116D02*
X009503Y019116D01*
X009264Y019355D02*
X009217Y019355D01*
X009523Y019832D02*
X022417Y019832D01*
X022417Y020070D02*
X000362Y020070D01*
X000362Y019832D02*
X008010Y019832D01*
X007772Y019593D02*
X000362Y019593D01*
X000362Y019355D02*
X006373Y019355D01*
X006217Y019116D02*
X000362Y019116D01*
X000362Y018878D02*
X000976Y018878D01*
X000910Y018812D02*
X001065Y018966D01*
X001267Y019050D01*
X001486Y019050D01*
X001688Y018966D01*
X001843Y018812D01*
X001927Y018609D01*
X001927Y018391D01*
X001843Y018188D01*
X001688Y018034D01*
X001486Y017950D01*
X001267Y017950D01*
X001065Y018034D01*
X000910Y018188D01*
X000827Y018391D01*
X000827Y018609D01*
X000910Y018812D01*
X000839Y018639D02*
X000362Y018639D01*
X000362Y018401D02*
X000827Y018401D01*
X000937Y018162D02*
X000362Y018162D01*
X000362Y017924D02*
X006217Y017924D01*
X006217Y018162D02*
X003597Y018162D01*
X003623Y018188D02*
X003707Y018391D01*
X003707Y018609D01*
X003623Y018812D01*
X003468Y018966D01*
X003266Y019050D01*
X003047Y019050D01*
X002845Y018966D01*
X002690Y018812D01*
X002607Y018609D01*
X002607Y018391D01*
X002690Y018188D01*
X002845Y018034D01*
X003047Y017950D01*
X003266Y017950D01*
X003468Y018034D01*
X003623Y018188D01*
X003707Y018401D02*
X006217Y018401D01*
X006320Y018639D02*
X003694Y018639D01*
X003557Y018878D02*
X006217Y018878D01*
X007160Y019355D02*
X007373Y019355D01*
X008767Y018970D02*
X008767Y018970D01*
X009761Y019593D02*
X022417Y019593D01*
X022417Y019355D02*
X016395Y019355D01*
X016392Y019358D02*
X016224Y019427D01*
X016042Y019427D01*
X015874Y019358D01*
X015745Y019229D01*
X015676Y019061D01*
X015676Y018879D01*
X015745Y018711D01*
X015874Y018582D01*
X016042Y018513D01*
X016224Y018513D01*
X016392Y018582D01*
X016520Y018711D01*
X016590Y018879D01*
X016590Y019061D01*
X016520Y019229D01*
X016392Y019358D01*
X016567Y019116D02*
X022417Y019116D01*
X022417Y018878D02*
X016589Y018878D01*
X016448Y018639D02*
X022417Y018639D01*
X022417Y018401D02*
X010027Y018401D01*
X010027Y018639D02*
X014085Y018639D01*
X014142Y018582D02*
X014013Y018711D01*
X013943Y018879D01*
X013943Y019061D01*
X014013Y019229D01*
X014142Y019358D01*
X014310Y019427D01*
X014491Y019427D01*
X014659Y019358D01*
X014788Y019229D01*
X014858Y019061D01*
X014858Y018879D01*
X014788Y018711D01*
X014659Y018582D01*
X014491Y018513D01*
X014310Y018513D01*
X014142Y018582D01*
X013944Y018878D02*
X010027Y018878D01*
X010027Y019116D02*
X013966Y019116D01*
X014139Y019355D02*
X009992Y019355D01*
X010027Y018162D02*
X022417Y018162D01*
X022417Y017924D02*
X010027Y017924D01*
X010169Y017685D02*
X022417Y017685D01*
X022417Y017447D02*
X010625Y017447D01*
X010625Y017208D02*
X022417Y017208D01*
X022417Y016970D02*
X010625Y016970D01*
X008507Y016970D02*
X000362Y016970D01*
X000362Y017208D02*
X008507Y017208D01*
X008507Y017447D02*
X008021Y017447D01*
X008260Y017685D02*
X008274Y017685D01*
X007512Y017447D02*
X007238Y017447D01*
X006296Y017447D02*
X000362Y017447D01*
X000362Y017685D02*
X006217Y017685D01*
X006860Y015777D02*
X003684Y015777D01*
X003533Y015539D02*
X006762Y015539D01*
X007166Y013975D02*
X006981Y013898D01*
X006839Y013756D01*
X006762Y013570D01*
X006762Y013370D01*
X006839Y013184D01*
X006981Y013042D01*
X007166Y012965D01*
X007367Y012965D01*
X007553Y013042D01*
X007695Y013184D01*
X007772Y013370D01*
X007772Y013570D01*
X007695Y013756D01*
X007553Y013898D01*
X007367Y013975D01*
X007166Y013975D01*
X006952Y013869D02*
X001817Y013869D01*
X001805Y014108D02*
X010536Y014108D01*
X010298Y013869D02*
X007582Y013869D01*
X007747Y013631D02*
X010059Y013631D01*
X010007Y013392D02*
X007772Y013392D01*
X007664Y013154D02*
X010007Y013154D01*
X010007Y012915D02*
X001817Y012915D01*
X001786Y013154D02*
X006869Y013154D01*
X006762Y013392D02*
X001622Y013392D01*
X001705Y013631D02*
X006787Y013631D01*
X004567Y012438D02*
X010007Y012438D01*
X010007Y012677D02*
X004328Y012677D01*
X003892Y012677D02*
X003892Y012677D01*
X003892Y012438D02*
X003892Y012438D01*
X003892Y012200D02*
X003892Y012200D01*
X003892Y012095D02*
X003892Y012095D01*
X003172Y012095D01*
X003892Y012095D01*
X004612Y012200D02*
X010007Y012200D01*
X010527Y012677D02*
X010605Y012677D01*
X010527Y012915D02*
X010844Y012915D01*
X011082Y013154D02*
X010527Y013154D01*
X010556Y013392D02*
X018659Y013392D01*
X018659Y013154D02*
X013125Y013154D01*
X013125Y013223D02*
X013019Y013328D01*
X012514Y013328D01*
X012409Y013223D01*
X012409Y012717D01*
X012507Y012619D01*
X012507Y008328D01*
X012007Y007828D01*
X011764Y007828D01*
X011659Y007723D01*
X011659Y007217D01*
X011764Y007112D01*
X012269Y007112D01*
X012375Y007217D01*
X012375Y007460D01*
X012987Y008073D01*
X013027Y008168D01*
X013027Y012619D01*
X013125Y012717D01*
X013125Y013223D01*
X013125Y012915D02*
X018711Y012915D01*
X018593Y012690D02*
X018172Y012268D01*
X018172Y011970D01*
X018172Y011672D01*
X018593Y011250D01*
X018892Y011250D01*
X019190Y011250D01*
X019612Y011672D01*
X019612Y011970D01*
X019612Y012268D01*
X019190Y012690D01*
X018892Y012690D01*
X018892Y011970D01*
X019612Y011970D01*
X018892Y011970D01*
X018892Y011970D01*
X018892Y011970D01*
X018892Y011250D01*
X018892Y011970D01*
X018892Y011970D01*
X018892Y012690D01*
X018593Y012690D01*
X018580Y012677D02*
X013084Y012677D01*
X013027Y012438D02*
X018341Y012438D01*
X018172Y012200D02*
X013027Y012200D01*
X013027Y011961D02*
X018172Y011961D01*
X018172Y011970D02*
X018892Y011970D01*
X018892Y011970D01*
X018172Y011970D01*
X018172Y011723D02*
X013027Y011723D01*
X013027Y011484D02*
X018359Y011484D01*
X018892Y011484D02*
X018892Y011484D01*
X018892Y011723D02*
X018892Y011723D01*
X018892Y011961D02*
X018892Y011961D01*
X018892Y012200D02*
X018892Y012200D01*
X018892Y012438D02*
X018892Y012438D01*
X018892Y012677D02*
X018892Y012677D01*
X019203Y012677D02*
X019942Y012677D01*
X019704Y012915D02*
X019322Y012915D01*
X019442Y012438D02*
X020181Y012438D01*
X020419Y012200D02*
X019612Y012200D01*
X019612Y011961D02*
X020658Y011961D01*
X020935Y011723D02*
X019612Y011723D01*
X019424Y011484D02*
X021226Y011484D01*
X020995Y011246D02*
X013027Y011246D01*
X013027Y011007D02*
X020927Y011007D01*
X020927Y010970D02*
X021517Y010970D01*
X022107Y010970D01*
X021517Y010970D01*
X021517Y010970D01*
X020927Y010970D01*
X020962Y010769D02*
X013027Y010769D01*
X013027Y010530D02*
X018490Y010530D01*
X018506Y010546D02*
X018315Y010355D01*
X018212Y010105D01*
X018212Y010028D01*
X016671Y008487D01*
X016500Y008316D01*
X016407Y008091D01*
X016407Y007099D01*
X016500Y006874D01*
X016671Y006703D01*
X016895Y006610D01*
X017138Y006610D01*
X017362Y006703D01*
X017534Y006874D01*
X017627Y007099D01*
X017627Y007717D01*
X019409Y009499D01*
X019427Y009544D01*
X019468Y009585D01*
X019572Y009835D01*
X019572Y010105D01*
X019468Y010355D01*
X019277Y010546D01*
X019027Y010650D01*
X018756Y010650D01*
X018506Y010546D01*
X018289Y010292D02*
X013027Y010292D01*
X013027Y010053D02*
X018212Y010053D01*
X017999Y009815D02*
X013027Y009815D01*
X013027Y009576D02*
X017760Y009576D01*
X017522Y009338D02*
X013027Y009338D01*
X013027Y009099D02*
X017283Y009099D01*
X017045Y008861D02*
X013027Y008861D01*
X013027Y008622D02*
X016806Y008622D01*
X016568Y008384D02*
X013027Y008384D01*
X013017Y008145D02*
X016429Y008145D01*
X016407Y007907D02*
X012821Y007907D01*
X012582Y007668D02*
X016407Y007668D01*
X016407Y007430D02*
X012375Y007430D01*
X012348Y007191D02*
X016407Y007191D01*
X016467Y006953D02*
X010527Y006953D01*
X010527Y006714D02*
X016660Y006714D01*
X017373Y006714D02*
X018657Y006714D01*
X018657Y006476D02*
X010527Y006476D01*
X010527Y006237D02*
X018657Y006237D01*
X018657Y006953D02*
X017566Y006953D01*
X017627Y007191D02*
X018657Y007191D01*
X018657Y007430D02*
X017627Y007430D01*
X017627Y007668D02*
X018657Y007668D01*
X018657Y007907D02*
X017816Y007907D01*
X018054Y008145D02*
X018657Y008145D01*
X018674Y008384D02*
X018293Y008384D01*
X018531Y008622D02*
X018806Y008622D01*
X018770Y008861D02*
X019045Y008861D01*
X019008Y009099D02*
X019283Y009099D01*
X019247Y009338D02*
X019522Y009338D01*
X019459Y009576D02*
X019760Y009576D01*
X019563Y009815D02*
X019999Y009815D01*
X020237Y010053D02*
X019572Y010053D01*
X019495Y010292D02*
X020476Y010292D01*
X020775Y010530D02*
X019293Y010530D01*
X020770Y008861D02*
X020967Y008861D01*
X021087Y008622D02*
X020531Y008622D01*
X020293Y008384D02*
X022417Y008384D01*
X022417Y008622D02*
X021946Y008622D01*
X022067Y008861D02*
X022417Y008861D01*
X022417Y009099D02*
X022059Y009099D01*
X021927Y009338D02*
X022417Y009338D01*
X022417Y009576D02*
X021985Y009576D01*
X022113Y009815D02*
X022417Y009815D01*
X022417Y010053D02*
X022127Y010053D01*
X022044Y010292D02*
X022417Y010292D01*
X022417Y010530D02*
X021911Y010530D01*
X022072Y010769D02*
X022417Y010769D01*
X022417Y011007D02*
X022107Y011007D01*
X022038Y011246D02*
X022417Y011246D01*
X022417Y011484D02*
X021807Y011484D01*
X022009Y011723D02*
X022417Y011723D01*
X022417Y011961D02*
X022067Y011961D01*
X022017Y012200D02*
X022417Y012200D01*
X022417Y012438D02*
X021824Y012438D01*
X021990Y012677D02*
X022417Y012677D01*
X022417Y012915D02*
X022067Y012915D01*
X022036Y013154D02*
X022417Y013154D01*
X022417Y013392D02*
X021872Y013392D01*
X021955Y013631D02*
X022417Y013631D01*
X022417Y013869D02*
X022067Y013869D01*
X022055Y014108D02*
X022417Y014108D01*
X022417Y014346D02*
X021918Y014346D01*
X022417Y014585D02*
X011875Y014585D01*
X011875Y014823D02*
X022417Y014823D01*
X021115Y014346D02*
X011510Y014346D01*
X011272Y014108D02*
X012659Y014108D01*
X012659Y013869D02*
X011033Y013869D01*
X010795Y013631D02*
X012745Y013631D01*
X012409Y013154D02*
X012125Y013154D01*
X012125Y012915D02*
X012409Y012915D01*
X012449Y012677D02*
X012084Y012677D01*
X012507Y012438D02*
X011102Y012438D01*
X011341Y012677D02*
X011449Y012677D01*
X011027Y012200D02*
X012507Y012200D01*
X012507Y011961D02*
X011027Y011961D01*
X011027Y011723D02*
X012507Y011723D01*
X012507Y011484D02*
X011027Y011484D01*
X011027Y011246D02*
X012507Y011246D01*
X012507Y011007D02*
X011027Y011007D01*
X011027Y010769D02*
X012507Y010769D01*
X012507Y010530D02*
X011027Y010530D01*
X011027Y010292D02*
X012507Y010292D01*
X012507Y010053D02*
X011027Y010053D01*
X011027Y009815D02*
X012507Y009815D01*
X012507Y009576D02*
X011027Y009576D01*
X011027Y009338D02*
X012507Y009338D01*
X012507Y009099D02*
X011027Y009099D01*
X011027Y008861D02*
X012507Y008861D01*
X012507Y008622D02*
X011027Y008622D01*
X011027Y008384D02*
X012507Y008384D01*
X012324Y008145D02*
X011027Y008145D01*
X011027Y007907D02*
X012085Y007907D01*
X011659Y007668D02*
X011125Y007668D01*
X011125Y007430D02*
X011659Y007430D01*
X011685Y007191D02*
X011098Y007191D01*
X010007Y007191D02*
X006377Y007191D01*
X006377Y007099D02*
X006377Y008341D01*
X006284Y008566D01*
X006112Y008737D01*
X004538Y010311D01*
X004468Y010480D01*
X004277Y010671D01*
X004027Y010775D01*
X003756Y010775D01*
X003506Y010671D01*
X003315Y010480D01*
X003212Y010230D01*
X003212Y009960D01*
X003315Y009710D01*
X003506Y009519D01*
X003675Y009449D01*
X005157Y007967D01*
X005157Y007099D01*
X005250Y006874D01*
X005421Y006703D01*
X005645Y006610D01*
X005888Y006610D01*
X006112Y006703D01*
X006284Y006874D01*
X006377Y007099D01*
X006316Y006953D02*
X010007Y006953D01*
X010007Y006714D02*
X006123Y006714D01*
X005410Y006714D02*
X004127Y006714D01*
X004127Y006476D02*
X010007Y006476D01*
X010007Y006237D02*
X004127Y006237D01*
X004127Y005999D02*
X010007Y005999D01*
X010109Y005760D02*
X004127Y005760D01*
X004127Y005522D02*
X010159Y005522D01*
X010007Y007430D02*
X006377Y007430D01*
X006377Y007668D02*
X010007Y007668D01*
X010007Y007907D02*
X006377Y007907D01*
X006377Y008145D02*
X010007Y008145D01*
X010007Y008384D02*
X006359Y008384D01*
X006227Y008622D02*
X010007Y008622D01*
X010007Y008861D02*
X005989Y008861D01*
X005750Y009099D02*
X010007Y009099D01*
X010007Y009338D02*
X005512Y009338D01*
X005273Y009576D02*
X010007Y009576D01*
X010007Y009815D02*
X005035Y009815D01*
X004796Y010053D02*
X010007Y010053D01*
X010007Y010292D02*
X004558Y010292D01*
X004418Y010530D02*
X009909Y010530D01*
X009909Y010769D02*
X004043Y010769D01*
X003741Y010769D02*
X001822Y010769D01*
X001857Y011007D02*
X002362Y011007D01*
X002123Y011246D02*
X001788Y011246D01*
X001885Y011484D02*
X001557Y011484D01*
X001267Y010970D02*
X001267Y010970D01*
X002009Y010530D02*
X003365Y010530D01*
X003237Y010292D02*
X002308Y010292D01*
X002546Y010053D02*
X003212Y010053D01*
X003272Y009815D02*
X002785Y009815D01*
X003023Y009576D02*
X003449Y009576D01*
X003262Y009338D02*
X003786Y009338D01*
X004025Y009099D02*
X003500Y009099D01*
X003739Y008861D02*
X004263Y008861D01*
X004502Y008622D02*
X003977Y008622D01*
X004109Y008384D02*
X004740Y008384D01*
X004979Y008145D02*
X004127Y008145D01*
X004127Y007907D02*
X005157Y007907D01*
X005157Y007668D02*
X004127Y007668D01*
X004127Y007430D02*
X005157Y007430D01*
X005157Y007191D02*
X004127Y007191D01*
X004127Y006953D02*
X005217Y006953D01*
X002252Y008622D02*
X001696Y008622D01*
X001817Y008861D02*
X002013Y008861D01*
X004421Y011007D02*
X009943Y011007D01*
X010007Y011246D02*
X004660Y011246D01*
X004487Y011073D02*
X004487Y011073D01*
X004612Y011961D02*
X004669Y011961D01*
X003484Y011484D02*
X002620Y011484D01*
X002382Y011723D02*
X003246Y011723D01*
X003172Y011961D02*
X002143Y011961D01*
X001892Y012200D02*
X003172Y012200D01*
X003216Y012438D02*
X001574Y012438D01*
X001740Y012677D02*
X003455Y012677D01*
X001668Y014346D02*
X010775Y014346D01*
X013288Y013631D02*
X021078Y013631D01*
X021161Y013392D02*
X019962Y013392D01*
X020201Y013154D02*
X020997Y013154D01*
X020967Y012915D02*
X020439Y012915D01*
X020678Y012677D02*
X021043Y012677D01*
X020916Y012438D02*
X021209Y012438D01*
X021517Y010970D02*
X021517Y010970D01*
X022417Y008145D02*
X020054Y008145D01*
X019877Y007907D02*
X022417Y007907D01*
X022417Y007668D02*
X019877Y007668D01*
X019877Y007430D02*
X022417Y007430D01*
X022417Y007191D02*
X019877Y007191D01*
X019877Y006953D02*
X022417Y006953D01*
X022417Y006714D02*
X019877Y006714D01*
X019877Y006476D02*
X022417Y006476D01*
X022417Y006237D02*
X019877Y006237D01*
X019877Y005999D02*
X022417Y005999D01*
X022417Y005760D02*
X019877Y005760D01*
X019877Y005522D02*
X022417Y005522D01*
X022417Y005283D02*
X019877Y005283D01*
X019877Y005045D02*
X022417Y005045D01*
X022417Y004806D02*
X019877Y004806D01*
X019877Y004568D02*
X022417Y004568D01*
X022417Y004329D02*
X019877Y004329D01*
X019877Y004091D02*
X022417Y004091D01*
X022417Y003852D02*
X019877Y003852D01*
X019877Y003614D02*
X022417Y003614D01*
X022417Y003375D02*
X019877Y003375D01*
X019877Y003137D02*
X022417Y003137D01*
X022417Y002898D02*
X019877Y002898D01*
X019877Y002660D02*
X022417Y002660D01*
X022417Y002421D02*
X019877Y002421D01*
X020285Y002183D02*
X022417Y002183D01*
X022417Y001944D02*
X020357Y001944D01*
X020375Y001706D02*
X022417Y001706D01*
X022417Y001467D02*
X020375Y001467D01*
X020375Y001229D02*
X022417Y001229D01*
X022417Y000990D02*
X000362Y000990D01*
X000362Y000752D02*
X022417Y000752D01*
X022417Y000513D02*
X000362Y000513D01*
X000362Y000440D02*
X000362Y020746D01*
X022417Y020746D01*
X022417Y000440D01*
X000362Y000440D01*
X009863Y001706D02*
X012920Y001706D01*
X012909Y001944D02*
X009875Y001944D01*
X009875Y002183D02*
X012909Y002183D01*
X002780Y015539D02*
X001810Y015539D01*
X001944Y015777D02*
X002629Y015777D01*
X002607Y016016D02*
X001962Y016016D01*
X001878Y016254D02*
X002693Y016254D01*
X001377Y016254D02*
X001377Y016254D01*
X001377Y016016D02*
X001377Y016016D01*
X001377Y015940D02*
X001377Y015940D01*
X001377Y015777D02*
X001377Y015777D01*
X001377Y015539D02*
X001377Y015539D01*
X000362Y016731D02*
X008507Y016731D01*
X002756Y018878D02*
X001777Y018878D01*
X001914Y018639D02*
X002619Y018639D01*
X002607Y018401D02*
X001927Y018401D01*
X001817Y018162D02*
X002717Y018162D01*
X000362Y020309D02*
X022417Y020309D01*
X022417Y020547D02*
X000362Y020547D01*
X014663Y019355D02*
X015871Y019355D01*
X015698Y019116D02*
X014835Y019116D01*
X014857Y018878D02*
X015676Y018878D01*
X015817Y018639D02*
X014716Y018639D01*
D21*
X018892Y009970D02*
X018892Y009845D01*
X017017Y007970D01*
X017017Y007720D01*
X017017Y007220D01*
X019267Y008220D02*
X021017Y009970D01*
X021517Y009970D01*
X019267Y008220D02*
X019267Y001970D01*
X005767Y007220D02*
X005767Y007720D01*
X005767Y008220D01*
X003892Y010095D01*
X003517Y008220D02*
X003517Y001970D01*
X003517Y008220D02*
X001767Y009970D01*
X001267Y009970D01*
D22*
X002767Y001970D02*
X002767Y001470D01*
X003017Y001470D01*
X003017Y001970D01*
X003267Y001970D01*
X003267Y001470D01*
X003767Y001470D01*
X003767Y001720D01*
X004267Y001720D01*
X004267Y001970D01*
X003767Y001970D01*
X003767Y001720D01*
X003767Y001970D02*
X003517Y001970D01*
X003267Y001970D01*
X003017Y001970D02*
X002767Y001970D01*
X002767Y001470D02*
X003267Y001470D01*
X003767Y001470D02*
X004267Y001470D01*
X004267Y001970D02*
X009517Y001970D01*
X013267Y001970D02*
X020017Y001970D01*
X020017Y001470D01*
X020017Y001720D01*
X019267Y001720D01*
X019267Y001970D01*
X019017Y001720D02*
X019017Y001470D01*
X019517Y001470D01*
X020017Y001470D01*
X018767Y001470D02*
X018517Y001470D01*
X018517Y001970D01*
X018767Y001970D02*
X018767Y001470D01*
X013767Y001970D02*
X013267Y001970D01*
M02*
