G75*
%MOIN*%
%OFA0B0*%
%FSLAX24Y24*%
%IPPOS*%
%LPD*%
%AMOC8*
5,1,8,0,0,1.08239X$1,22.5*
%
%ADD10C,0.0000*%
%ADD11R,0.0315X0.0472*%
%ADD12R,0.0472X0.0315*%
%ADD13R,0.0472X0.0551*%
%ADD14R,0.0551X0.0472*%
%ADD15C,0.1000*%
%ADD16OC8,0.1000*%
%ADD17C,0.0740*%
%ADD18R,0.0197X0.0591*%
%ADD19R,0.0591X0.0197*%
%ADD20C,0.0650*%
%ADD21R,0.0512X0.0264*%
%ADD22R,0.2067X0.4055*%
%ADD23R,0.2067X0.2453*%
%ADD24R,0.0740X0.0740*%
%ADD25OC8,0.0740*%
%ADD26C,0.0554*%
%ADD27R,0.0197X0.0984*%
%ADD28R,0.0787X0.0984*%
%ADD29C,0.0160*%
%ADD30R,0.0356X0.0356*%
%ADD31C,0.0320*%
%ADD32C,0.0240*%
%ADD33C,0.1000*%
%ADD34C,0.0400*%
%ADD35C,0.0860*%
D10*
X000142Y000220D02*
X000142Y020966D01*
X022637Y020966D01*
X022637Y000220D01*
X000142Y000220D01*
D11*
X005412Y000720D03*
X006121Y000720D03*
X009162Y002720D03*
X009871Y002720D03*
X009871Y003720D03*
X009162Y003720D03*
X009162Y004720D03*
X009871Y004720D03*
X009871Y005720D03*
X009162Y005720D03*
X009162Y006720D03*
X009871Y006720D03*
X009371Y009470D03*
X008662Y009470D03*
X008662Y010720D03*
X009371Y010720D03*
X005871Y013970D03*
X005162Y013970D03*
X005162Y014970D03*
X005871Y014970D03*
X011912Y017970D03*
X012621Y017970D03*
X016412Y016470D03*
X017121Y016470D03*
X015871Y012970D03*
X015162Y012970D03*
X014121Y010720D03*
X013412Y010720D03*
X013412Y009470D03*
X014121Y009470D03*
X013621Y006720D03*
X012912Y006720D03*
X012912Y005720D03*
X013621Y005720D03*
X013621Y004720D03*
X012912Y004720D03*
X012912Y003720D03*
X013621Y003720D03*
X013621Y002720D03*
X012912Y002720D03*
X016662Y000720D03*
X017371Y000720D03*
D12*
X018517Y015616D03*
X018517Y016324D03*
X020017Y016324D03*
X020017Y015616D03*
X005767Y016616D03*
X005767Y017324D03*
D13*
X006676Y010720D03*
X007857Y010720D03*
X007857Y009220D03*
X006676Y009220D03*
X014926Y009220D03*
X016107Y009220D03*
X016107Y010720D03*
X014926Y010720D03*
D14*
X019267Y017629D03*
X019267Y018811D03*
X021017Y018811D03*
X021017Y017629D03*
D15*
X018892Y009970D03*
X003892Y010095D03*
D16*
X003892Y012095D03*
X018892Y011970D03*
D17*
X021517Y011970D03*
X021517Y010970D03*
X021517Y009970D03*
X021517Y008970D03*
X021517Y012970D03*
X021517Y013970D03*
X003157Y015940D03*
X001377Y015940D03*
X001267Y013970D03*
X001267Y012970D03*
X001267Y011970D03*
X001267Y010970D03*
X001267Y009970D03*
X001267Y008970D03*
X001377Y018500D03*
X003157Y018500D03*
D18*
X010192Y016503D03*
X010507Y016503D03*
X010822Y016503D03*
X011137Y016503D03*
X011452Y016503D03*
X011767Y016503D03*
X012082Y016503D03*
X012397Y016503D03*
X012712Y016503D03*
X013027Y016503D03*
X013341Y016503D03*
X013341Y011937D03*
X013027Y011937D03*
X012712Y011937D03*
X012397Y011937D03*
X012082Y011937D03*
X011767Y011937D03*
X011452Y011937D03*
X011137Y011937D03*
X010822Y011937D03*
X010507Y011937D03*
X010192Y011937D03*
D19*
X009483Y012645D03*
X009483Y012960D03*
X009483Y013275D03*
X009483Y013590D03*
X009483Y013905D03*
X009483Y014220D03*
X009483Y014535D03*
X009483Y014850D03*
X009483Y015165D03*
X009483Y015480D03*
X009483Y015795D03*
X014050Y015795D03*
X014050Y015480D03*
X014050Y015165D03*
X014050Y014850D03*
X014050Y014535D03*
X014050Y014220D03*
X014050Y013905D03*
X014050Y013590D03*
X014050Y013275D03*
X014050Y012960D03*
X014050Y012645D03*
D20*
X007267Y013470D03*
X007267Y015470D03*
D21*
X008349Y007476D03*
X008349Y007082D03*
X008349Y006689D03*
X008349Y006295D03*
X008349Y005901D03*
X008349Y005507D03*
X008349Y005114D03*
X008349Y004720D03*
X008349Y004326D03*
X008349Y003933D03*
X008349Y003539D03*
X008349Y003145D03*
X008349Y002751D03*
X008349Y002358D03*
X008349Y001964D03*
X014434Y001964D03*
X014434Y002358D03*
X014434Y002751D03*
X014434Y003145D03*
X014434Y003539D03*
X014434Y003933D03*
X014434Y004326D03*
X014434Y004720D03*
X014434Y005114D03*
X014434Y005507D03*
X014434Y005901D03*
X014434Y006295D03*
X014434Y006689D03*
X014434Y007082D03*
X014434Y007476D03*
X021599Y007476D03*
X021599Y007082D03*
X021599Y006689D03*
X021599Y006295D03*
X021599Y005901D03*
X021599Y005507D03*
X021599Y005114D03*
X021599Y004720D03*
X021599Y004326D03*
X021599Y003933D03*
X021599Y003539D03*
X021599Y003145D03*
X021599Y002751D03*
X021599Y002358D03*
X021599Y001964D03*
X001184Y001964D03*
X001184Y002358D03*
X001184Y002751D03*
X001184Y003145D03*
X001184Y003539D03*
X001184Y003933D03*
X001184Y004326D03*
X001184Y004720D03*
X001184Y005114D03*
X001184Y005507D03*
X001184Y005901D03*
X001184Y006295D03*
X001184Y006689D03*
X001184Y007082D03*
X001184Y007476D03*
D22*
X005967Y004720D03*
X016816Y004720D03*
D23*
X019217Y003080D03*
X019217Y006360D03*
X003566Y006360D03*
X003566Y003080D03*
D24*
X006767Y017970D03*
D25*
X007767Y017970D03*
X008767Y017970D03*
X008767Y018970D03*
X007767Y018970D03*
X006767Y018970D03*
D26*
X014401Y018970D03*
X016133Y018970D03*
D27*
X015897Y017986D03*
X015582Y017986D03*
X015267Y017986D03*
X014952Y017986D03*
X014637Y017986D03*
D28*
X013495Y017986D03*
X013495Y020151D03*
X017038Y020151D03*
X017038Y017986D03*
D29*
X015897Y017986D02*
X015897Y016986D01*
X016412Y016470D01*
X016412Y015720D01*
X016517Y015616D01*
X018517Y015616D01*
X018517Y013720D01*
X019017Y013220D01*
X020017Y011220D02*
X020017Y015616D01*
X020017Y016324D02*
X020017Y016531D01*
X021017Y017629D01*
X019267Y017629D02*
X018517Y016781D01*
X018517Y016324D01*
X016412Y015720D02*
X016412Y015366D01*
X016267Y015220D01*
X015517Y015220D01*
X015162Y014866D01*
X015162Y012970D01*
X014838Y012645D01*
X014050Y012645D01*
X013767Y012220D02*
X013767Y011470D01*
X013412Y011116D01*
X013412Y010720D01*
X014121Y010720D02*
X014926Y010720D01*
X014121Y009470D02*
X014371Y009220D01*
X014926Y009220D01*
X013412Y009470D02*
X011767Y009470D01*
X011767Y011937D01*
X011452Y011937D02*
X011452Y012535D01*
X011267Y012720D01*
X011267Y013220D01*
X011517Y013470D01*
X013017Y013470D01*
X013267Y013220D01*
X013267Y012720D01*
X013767Y012220D01*
X012767Y012970D02*
X012397Y012600D01*
X012397Y011937D01*
X012082Y011937D02*
X012082Y012655D01*
X011767Y012970D01*
X011137Y012350D02*
X011137Y011937D01*
X011137Y009350D01*
X011267Y009220D01*
X011267Y003720D01*
X010267Y002720D01*
X009871Y002720D01*
X009162Y002720D02*
X009162Y003074D01*
X008767Y003470D01*
X008418Y003470D01*
X008349Y003539D01*
X008349Y003933D02*
X008930Y003933D01*
X009162Y003720D01*
X009871Y003720D02*
X010517Y003720D01*
X011517Y003720D02*
X011517Y009470D01*
X011452Y009535D01*
X011452Y011937D01*
X011137Y012350D02*
X011017Y012470D01*
X010017Y012470D01*
X009267Y011720D01*
X009267Y010844D01*
X009371Y010720D01*
X008662Y010720D02*
X007857Y010720D01*
X008662Y009470D02*
X008393Y009220D01*
X007857Y009220D01*
X009371Y009470D02*
X010822Y009470D01*
X010822Y011937D01*
X010507Y011937D02*
X010507Y010960D01*
X010267Y010720D01*
X010822Y009470D02*
X010822Y008525D01*
X010017Y007720D01*
X010017Y006846D01*
X009871Y006720D01*
X009162Y006720D02*
X009162Y006366D01*
X008767Y005970D01*
X008418Y005970D01*
X008349Y005901D01*
X008349Y005507D02*
X008930Y005507D01*
X009162Y005720D01*
X009871Y005720D02*
X010517Y005720D01*
X011017Y005220D02*
X011017Y007220D01*
X010767Y007470D01*
X011767Y007220D02*
X012017Y007470D01*
X011767Y007220D02*
X011767Y005470D01*
X012517Y004720D01*
X012912Y004720D01*
X013621Y004720D02*
X014434Y004720D01*
X014434Y005507D02*
X013603Y005507D01*
X013621Y005720D01*
X014017Y005970D02*
X014365Y005970D01*
X014434Y005901D01*
X014017Y005970D02*
X013621Y006366D01*
X013621Y006720D01*
X012912Y006720D02*
X012767Y006846D01*
X012767Y007720D01*
X011767Y008720D01*
X011767Y009470D01*
X007767Y012970D02*
X008702Y013905D01*
X009483Y013905D01*
X009483Y013590D02*
X010887Y013590D01*
X011267Y013970D01*
X013017Y013970D01*
X011517Y014720D02*
X011452Y014785D01*
X011452Y015220D01*
X011397Y015165D01*
X009483Y015165D01*
X009473Y015470D02*
X009483Y015480D01*
X009473Y015470D02*
X008517Y015470D01*
X008267Y015470D01*
X007517Y016220D01*
X005767Y016220D01*
X005767Y016616D01*
X005767Y016220D02*
X005487Y015940D01*
X003157Y015940D01*
X004017Y013970D02*
X001267Y013970D01*
X004017Y013970D02*
X005017Y012970D01*
X007767Y012970D01*
X007267Y013470D02*
X008017Y014220D01*
X009483Y014220D01*
X009483Y014535D02*
X008202Y014535D01*
X007267Y015470D01*
X006767Y014970D01*
X005871Y014970D01*
X005871Y013970D02*
X006767Y013970D01*
X007267Y013470D01*
X010158Y016470D02*
X010192Y016503D01*
X009975Y016720D01*
X007517Y016720D01*
X006767Y017470D01*
X006767Y017970D01*
X005767Y017970D02*
X006767Y018970D01*
X007517Y019720D01*
X009267Y019720D01*
X011452Y017535D01*
X011452Y016503D01*
X011452Y015720D01*
X011527Y015795D01*
X013017Y015795D01*
X013027Y015805D01*
X014040Y015805D01*
X014050Y015795D01*
X014942Y015795D01*
X015517Y015220D01*
X015582Y016970D02*
X015582Y017986D01*
X015267Y017986D02*
X015267Y017220D01*
X012397Y017220D01*
X012397Y016503D01*
X012712Y016503D02*
X012712Y016970D01*
X015582Y016970D01*
X013027Y016503D02*
X013027Y015805D01*
X011767Y016503D02*
X011767Y017824D01*
X011912Y017970D01*
X010822Y017415D02*
X010517Y017720D01*
X009517Y017720D01*
X009017Y017220D01*
X008267Y017220D01*
X007767Y017720D01*
X007767Y017970D01*
X005767Y017970D02*
X005767Y017324D01*
X010267Y017220D02*
X010517Y016970D01*
X010517Y016513D01*
X010507Y016503D01*
X010822Y016503D02*
X010822Y017415D01*
X011452Y015720D02*
X011452Y015220D01*
X018892Y010095D02*
X018892Y009970D01*
X018892Y010095D02*
X020017Y011220D01*
X012912Y005720D02*
X012267Y005720D01*
X011017Y005220D02*
X010517Y004720D01*
X009871Y004720D01*
X009162Y004720D02*
X008349Y004720D01*
X011517Y003720D02*
X012517Y002720D01*
X012912Y002720D01*
X013621Y002720D02*
X013621Y003074D01*
X014017Y003470D01*
X014365Y003470D01*
X014434Y003539D01*
X014434Y003933D02*
X013603Y003933D01*
X013621Y003720D01*
X012912Y003720D02*
X012267Y003720D01*
D30*
X012267Y003720D03*
X010517Y003720D03*
X009517Y001970D03*
X009017Y001970D03*
X010517Y005720D03*
X012267Y005720D03*
X012017Y007470D03*
X010767Y007470D03*
X010267Y010720D03*
X011767Y012970D03*
X012767Y012970D03*
X013017Y013970D03*
X012767Y014970D03*
X011517Y014720D03*
X010267Y017220D03*
X008517Y015470D03*
X015767Y011720D03*
X019017Y013220D03*
X017017Y007720D03*
X017017Y007220D03*
X020767Y006970D03*
X020767Y006470D03*
X020767Y005970D03*
X022267Y005720D03*
X022267Y005220D03*
X022267Y004720D03*
X022267Y004220D03*
X022267Y003720D03*
X022267Y003220D03*
X022267Y002720D03*
X022267Y002220D03*
X020767Y002470D03*
X020767Y002970D03*
X020767Y003470D03*
X020017Y001470D03*
X019517Y001470D03*
X019017Y001470D03*
X018517Y001470D03*
X018267Y000720D03*
X013767Y001970D03*
X013267Y001970D03*
X005767Y007220D03*
X005767Y007720D03*
X002017Y006970D03*
X002017Y006470D03*
X002017Y005970D03*
X000517Y005720D03*
X000517Y005220D03*
X000517Y004720D03*
X000517Y004220D03*
X000517Y003720D03*
X000517Y003220D03*
X000517Y002720D03*
X000517Y002220D03*
X002017Y002470D03*
X002017Y002970D03*
X002017Y003470D03*
X002767Y001470D03*
X003267Y001470D03*
X003767Y001470D03*
X004267Y001470D03*
X004517Y000720D03*
X000517Y006220D03*
X000517Y006720D03*
X000517Y007220D03*
X022267Y007220D03*
X022267Y006720D03*
X022267Y006220D03*
D31*
X022377Y006094D02*
X022108Y006094D01*
X022107Y006098D02*
X022115Y006137D01*
X022115Y006295D01*
X022115Y006452D01*
X022107Y006492D01*
X022115Y006531D01*
X022115Y006688D01*
X021599Y006688D01*
X021599Y006688D01*
X021599Y006687D01*
X021599Y006295D01*
X021599Y006295D01*
X021599Y006688D01*
X021599Y006689D01*
X022115Y006689D01*
X022115Y006720D01*
X022377Y006720D01*
X022377Y005720D01*
X022111Y005720D01*
X022115Y005744D01*
X022115Y005901D01*
X021599Y005901D01*
X021599Y006293D01*
X021599Y006295D01*
X021599Y006295D01*
X022115Y006295D01*
X021599Y006295D01*
X021599Y006295D01*
X021599Y005901D01*
X021599Y005901D01*
X021599Y005901D01*
X022115Y005901D01*
X022115Y006059D01*
X022107Y006098D01*
X022115Y006412D02*
X022377Y006412D01*
X022377Y005775D02*
X022115Y005775D01*
X021599Y005507D02*
X020070Y005507D01*
X019217Y006360D01*
X020334Y007476D01*
X021599Y007476D01*
X021599Y006412D02*
X021599Y006412D01*
X021599Y006094D02*
X021599Y006094D01*
X021599Y004720D02*
X017267Y004720D01*
X016816Y004720D01*
X014847Y002751D01*
X014434Y002751D01*
X014434Y001964D02*
X013273Y001964D01*
X013267Y001970D01*
X016816Y004720D02*
X014847Y006689D01*
X014434Y006689D01*
X014434Y007476D02*
X014773Y007476D01*
X015767Y008470D01*
X019217Y008470D01*
X019212Y007476D02*
X019217Y007470D01*
X020070Y003933D02*
X019217Y003080D01*
X018562Y002425D01*
X019017Y001970D01*
X019517Y001970D01*
X020017Y001970D01*
X020017Y001470D01*
X018517Y001470D01*
X018517Y002379D01*
X018562Y002425D01*
X019017Y001970D02*
X019017Y001470D01*
X019517Y001470D02*
X019517Y001970D01*
X020017Y001470D02*
X020517Y001470D01*
X021011Y001964D01*
X021599Y001964D01*
X021599Y002751D02*
X021599Y002752D01*
X021599Y002753D01*
X021599Y003145D01*
X021599Y003145D01*
X021599Y002752D01*
X021599Y002752D01*
X022115Y002752D01*
X022115Y002909D01*
X022107Y002948D01*
X022115Y002988D01*
X022115Y003145D01*
X021599Y003145D01*
X021599Y003537D01*
X021599Y003539D01*
X021599Y003539D01*
X021599Y003145D01*
X021599Y003145D01*
X021599Y003145D01*
X022115Y003145D01*
X022115Y003303D01*
X022107Y003342D01*
X022115Y003381D01*
X022115Y003539D01*
X022115Y003696D01*
X022111Y003720D01*
X022377Y003720D01*
X022377Y002720D01*
X022115Y002720D01*
X022115Y002751D01*
X021599Y002751D01*
X021599Y002909D02*
X021599Y002909D01*
X021599Y003227D02*
X021599Y003227D01*
X021599Y003539D02*
X021599Y003539D01*
X022115Y003539D01*
X021599Y003539D01*
X021599Y003933D02*
X020070Y003933D01*
X022115Y003546D02*
X022377Y003546D01*
X022377Y003227D02*
X022115Y003227D01*
X022115Y002909D02*
X022377Y002909D01*
X009517Y001970D02*
X009017Y001970D01*
X008349Y001970D01*
X008349Y001964D01*
X008349Y002751D02*
X007936Y002751D01*
X005967Y004720D01*
X006117Y004870D01*
X007936Y006689D01*
X008349Y006689D01*
X008349Y007476D02*
X008011Y007476D01*
X007017Y008470D01*
X003566Y008470D01*
X003572Y007476D02*
X003566Y007470D01*
X003566Y006360D02*
X002450Y007476D01*
X001184Y007476D01*
X001184Y006689D02*
X000668Y006689D01*
X000668Y006720D01*
X000517Y006720D01*
X000517Y005720D01*
X000673Y005720D01*
X000668Y005744D01*
X000668Y005901D01*
X001184Y005901D01*
X001184Y005901D01*
X000668Y005901D01*
X000668Y006059D01*
X000676Y006098D01*
X000668Y006137D01*
X000668Y006295D01*
X000668Y006452D01*
X000676Y006492D01*
X000668Y006531D01*
X000668Y006688D01*
X001184Y006688D01*
X001184Y006297D01*
X001184Y006295D01*
X001184Y006688D01*
X001184Y006688D01*
X001184Y006689D01*
X001184Y006412D02*
X001184Y006412D01*
X001184Y006295D02*
X001184Y006295D01*
X001184Y006295D01*
X000668Y006295D01*
X001184Y006295D01*
X001184Y005903D01*
X001184Y005901D01*
X001184Y005901D01*
X001184Y006295D01*
X001184Y006295D01*
X001184Y006094D02*
X001184Y006094D01*
X000675Y006094D02*
X000517Y006094D01*
X000517Y006412D02*
X000668Y006412D01*
X000668Y005775D02*
X000517Y005775D01*
X001184Y005507D02*
X002714Y005507D01*
X003566Y006360D01*
X001184Y004720D02*
X005967Y004720D01*
X003767Y002879D02*
X003767Y002720D01*
X003517Y002720D01*
X003517Y002470D01*
X003267Y002470D01*
X003267Y002220D01*
X002767Y002220D01*
X002767Y001470D01*
X004267Y001470D01*
X004267Y002470D01*
X004017Y002470D01*
X003767Y002720D02*
X003767Y001470D01*
X003267Y001470D02*
X003267Y002220D01*
X003767Y002879D02*
X003566Y003080D01*
X002714Y003933D01*
X001184Y003933D01*
X001184Y003539D02*
X001184Y003539D01*
X000668Y003539D01*
X000668Y003696D01*
X000673Y003720D01*
X000517Y003720D01*
X000517Y002720D01*
X000668Y002720D01*
X000668Y002751D01*
X001184Y002751D01*
X001184Y002752D01*
X001184Y003145D01*
X001184Y002753D01*
X001184Y002752D01*
X001184Y002752D01*
X000668Y002752D01*
X000668Y002909D01*
X000676Y002948D01*
X000668Y002988D01*
X000668Y003145D01*
X001184Y003145D01*
X001184Y003145D01*
X001184Y003145D01*
X000668Y003145D01*
X000668Y003303D01*
X000676Y003342D01*
X000668Y003381D01*
X000668Y003539D01*
X001184Y003539D01*
X001184Y003147D01*
X001184Y003145D01*
X001184Y003539D01*
X001184Y003539D01*
X001184Y003227D02*
X001184Y003227D01*
X001184Y003145D02*
X001184Y003145D01*
X001184Y002909D02*
X001184Y002909D01*
X000668Y002909D02*
X000517Y002909D01*
X000517Y003227D02*
X000668Y003227D01*
X000668Y003546D02*
X000517Y003546D01*
X001184Y001964D02*
X001773Y001964D01*
X002267Y001470D01*
X002767Y001470D01*
D32*
X002496Y001130D02*
X002514Y001112D01*
X004519Y001112D01*
X004625Y001217D01*
X004625Y001674D01*
X004674Y001674D01*
X004779Y001779D01*
X004779Y002593D01*
X004859Y002512D01*
X005338Y002512D01*
X005391Y002384D01*
X006675Y001100D01*
X006389Y001100D01*
X006353Y001136D01*
X005889Y001136D01*
X005784Y001031D01*
X005784Y001009D01*
X005775Y001041D01*
X005746Y001091D01*
X005705Y001132D01*
X005655Y001161D01*
X005599Y001176D01*
X005412Y001176D01*
X005226Y001176D01*
X005170Y001161D01*
X005120Y001132D01*
X005079Y001091D01*
X005050Y001041D01*
X005035Y000985D01*
X005035Y000720D01*
X005412Y000720D01*
X005035Y000720D01*
X005035Y000455D01*
X005039Y000440D01*
X000362Y000440D01*
X000362Y020746D01*
X012950Y020746D01*
X012921Y020718D01*
X012921Y019584D01*
X013027Y019479D01*
X013963Y019479D01*
X014069Y019584D01*
X014069Y020718D01*
X014040Y020746D01*
X016493Y020746D01*
X016465Y020718D01*
X016465Y019584D01*
X016570Y019479D01*
X017507Y019479D01*
X017612Y019584D01*
X017612Y020718D01*
X017584Y020746D01*
X022417Y020746D01*
X022417Y000440D01*
X017745Y000440D01*
X017748Y000455D01*
X017748Y000720D01*
X017371Y000720D01*
X017748Y000720D01*
X017748Y000985D01*
X017733Y001041D01*
X017705Y001091D01*
X017664Y001132D01*
X017613Y001161D01*
X017557Y001176D01*
X017371Y001176D01*
X017185Y001176D01*
X017129Y001161D01*
X017078Y001132D01*
X017037Y001091D01*
X017009Y001041D01*
X017000Y001009D01*
X017000Y001031D01*
X016894Y001136D01*
X016430Y001136D01*
X016394Y001100D01*
X016108Y001100D01*
X017392Y002384D01*
X017446Y002512D01*
X017924Y002512D01*
X018004Y002593D01*
X018004Y001779D01*
X018109Y001674D01*
X018159Y001674D01*
X018159Y001217D01*
X018264Y001112D01*
X020269Y001112D01*
X020287Y001130D01*
X020584Y001130D01*
X020709Y001182D01*
X020805Y001277D01*
X021152Y001624D01*
X021667Y001624D01*
X021735Y001652D01*
X021930Y001652D01*
X022035Y001758D01*
X022035Y002491D01*
X022060Y002535D01*
X022075Y002591D01*
X022075Y002751D01*
X021599Y002751D01*
X021123Y002751D01*
X021123Y002591D01*
X021138Y002535D01*
X021163Y002491D01*
X021163Y002304D01*
X020943Y002304D01*
X020818Y002252D01*
X020431Y001865D01*
X020431Y003593D01*
X021123Y003593D01*
X021123Y003539D01*
X021599Y003539D01*
X021599Y003539D01*
X021123Y003539D01*
X021123Y003378D01*
X021133Y003342D01*
X021123Y003306D01*
X021123Y003145D01*
X021123Y002984D01*
X021133Y002948D01*
X021123Y002912D01*
X021123Y002752D01*
X021599Y002752D01*
X021599Y002793D01*
X021599Y003145D01*
X021123Y003145D01*
X021599Y003145D01*
X021599Y003145D01*
X021599Y003145D01*
X021599Y002752D01*
X021599Y002752D01*
X021599Y002751D01*
X021599Y002752D01*
X022075Y002752D01*
X022075Y002912D01*
X022066Y002948D01*
X022075Y002984D01*
X022075Y003145D01*
X021599Y003145D01*
X021599Y003497D01*
X021599Y003539D01*
X021599Y003539D01*
X021599Y003145D01*
X021599Y003145D01*
X021599Y003145D01*
X022075Y003145D01*
X022075Y003306D01*
X022066Y003342D01*
X022075Y003378D01*
X022075Y003539D01*
X022075Y003700D01*
X022060Y003756D01*
X022035Y003799D01*
X022035Y005641D01*
X022060Y005684D01*
X022075Y005740D01*
X022075Y005901D01*
X021599Y005901D01*
X021123Y005901D01*
X021123Y005847D01*
X020431Y005847D01*
X020431Y007092D01*
X020474Y007136D01*
X021163Y007136D01*
X021163Y006949D01*
X021138Y006905D01*
X021123Y006849D01*
X021123Y006689D01*
X021599Y006689D01*
X021599Y006688D01*
X021599Y006688D01*
X021599Y006647D01*
X021599Y006295D01*
X021599Y006295D01*
X021123Y006295D01*
X021123Y006456D01*
X021133Y006492D01*
X021123Y006528D01*
X021123Y006688D01*
X021599Y006688D01*
X021599Y006295D01*
X021599Y006295D01*
X021123Y006295D01*
X021123Y006134D01*
X021133Y006098D01*
X021123Y006062D01*
X021123Y005901D01*
X021599Y005901D01*
X021599Y005901D01*
X021599Y006253D01*
X021599Y006295D01*
X021599Y006295D01*
X022075Y006295D01*
X022075Y006456D01*
X022066Y006492D01*
X022075Y006528D01*
X022075Y006688D01*
X021599Y006688D01*
X021599Y006689D01*
X022075Y006689D01*
X022075Y006849D01*
X022060Y006905D01*
X022035Y006949D01*
X022035Y007682D01*
X021930Y007788D01*
X021735Y007788D01*
X021667Y007816D01*
X020266Y007816D01*
X020146Y007766D01*
X019827Y007766D01*
X019827Y008360D01*
X021638Y008360D01*
X021862Y008453D01*
X022034Y008624D01*
X022127Y008849D01*
X022127Y009091D01*
X022034Y009316D01*
X021862Y009487D01*
X021825Y009502D01*
X021828Y009504D01*
X021983Y009658D01*
X022067Y009861D01*
X022067Y010079D01*
X021983Y010282D01*
X021828Y010436D01*
X021795Y010450D01*
X021826Y010465D01*
X021901Y010520D01*
X021967Y010586D01*
X022021Y010661D01*
X022063Y010744D01*
X022092Y010832D01*
X022107Y010924D01*
X022107Y010970D01*
X022107Y011016D01*
X022092Y011108D01*
X022063Y011196D01*
X022021Y011279D01*
X021967Y011354D01*
X021901Y011420D01*
X021826Y011475D01*
X021795Y011490D01*
X021828Y011504D01*
X021983Y011658D01*
X022067Y011861D01*
X022067Y012079D01*
X021983Y012282D01*
X021828Y012436D01*
X021747Y012470D01*
X021828Y012504D01*
X021983Y012658D01*
X022067Y012861D01*
X022067Y013079D01*
X021983Y013282D01*
X021828Y013436D01*
X021747Y013470D01*
X021828Y013504D01*
X021983Y013658D01*
X022067Y013861D01*
X022067Y014079D01*
X021983Y014282D01*
X021828Y014436D01*
X021626Y014520D01*
X021407Y014520D01*
X021205Y014436D01*
X021050Y014282D01*
X020967Y014079D01*
X020967Y013861D01*
X021050Y013658D01*
X021205Y013504D01*
X021287Y013470D01*
X021205Y013436D01*
X021050Y013282D01*
X020967Y013079D01*
X020967Y012861D01*
X021050Y012658D01*
X021205Y012504D01*
X021287Y012470D01*
X021205Y012436D01*
X021050Y012282D01*
X020967Y012079D01*
X020967Y011861D01*
X021050Y011658D01*
X021205Y011504D01*
X021238Y011490D01*
X021207Y011475D01*
X021132Y011420D01*
X021067Y011354D01*
X021012Y011279D01*
X020970Y011196D01*
X020941Y011108D01*
X020927Y011016D01*
X020927Y010970D01*
X020927Y010924D01*
X020941Y010832D01*
X020970Y010744D01*
X021012Y010661D01*
X021067Y010586D01*
X021132Y010520D01*
X021207Y010465D01*
X021238Y010450D01*
X021205Y010436D01*
X021050Y010282D01*
X020967Y010079D01*
X020967Y009861D01*
X021050Y009658D01*
X021129Y009580D01*
X019463Y009580D01*
X019468Y009585D01*
X019572Y009835D01*
X019572Y010105D01*
X019483Y010319D01*
X020164Y011000D01*
X020237Y011073D01*
X020277Y011168D01*
X020277Y015278D01*
X020327Y015278D01*
X020433Y015384D01*
X020433Y015848D01*
X020327Y015953D01*
X019706Y015953D01*
X019600Y015848D01*
X019600Y015384D01*
X019706Y015278D01*
X019757Y015278D01*
X019757Y011328D01*
X019064Y010635D01*
X019027Y010650D01*
X018756Y010650D01*
X018506Y010546D01*
X018315Y010355D01*
X018212Y010105D01*
X018212Y009835D01*
X018315Y009585D01*
X018506Y009394D01*
X018700Y009314D01*
X018607Y009091D01*
X018607Y008810D01*
X016520Y008810D01*
X016548Y008859D01*
X016563Y008915D01*
X016563Y009220D01*
X016563Y009525D01*
X016548Y009581D01*
X016519Y009631D01*
X016479Y009672D01*
X016428Y009701D01*
X016372Y009716D01*
X016107Y009716D01*
X015842Y009716D01*
X015786Y009701D01*
X015736Y009672D01*
X015695Y009631D01*
X015666Y009581D01*
X015651Y009525D01*
X015651Y009220D01*
X016107Y009220D01*
X015651Y009220D01*
X015651Y008915D01*
X015666Y008859D01*
X015695Y008809D01*
X015696Y008809D01*
X015574Y008758D01*
X015478Y008663D01*
X014632Y007816D01*
X014366Y007816D01*
X014298Y007788D01*
X014104Y007788D01*
X013998Y007682D01*
X013998Y006356D01*
X013952Y006403D01*
X013958Y006409D01*
X013958Y007031D01*
X013853Y007136D01*
X013389Y007136D01*
X013284Y007031D01*
X013284Y006409D01*
X013361Y006332D01*
X013361Y006314D01*
X013401Y006218D01*
X013483Y006136D01*
X013389Y006136D01*
X013284Y006031D01*
X013284Y005409D01*
X013389Y005304D01*
X013435Y005304D01*
X013438Y005300D01*
X013448Y005295D01*
X013456Y005287D01*
X013494Y005271D01*
X013530Y005253D01*
X013541Y005252D01*
X013552Y005247D01*
X013592Y005247D01*
X013633Y005244D01*
X013644Y005247D01*
X013998Y005247D01*
X013998Y004980D01*
X013958Y004980D01*
X013958Y005031D01*
X013853Y005136D01*
X013389Y005136D01*
X013284Y005031D01*
X013284Y004409D01*
X013389Y004304D01*
X013853Y004304D01*
X013958Y004409D01*
X013958Y004460D01*
X013998Y004460D01*
X013998Y004193D01*
X013644Y004193D01*
X013633Y004196D01*
X013592Y004193D01*
X013552Y004193D01*
X013541Y004188D01*
X013530Y004187D01*
X013494Y004169D01*
X013456Y004153D01*
X013448Y004145D01*
X013438Y004140D01*
X013435Y004136D01*
X013389Y004136D01*
X013284Y004031D01*
X013284Y003409D01*
X013389Y003304D01*
X013483Y003304D01*
X013401Y003222D01*
X013361Y003126D01*
X013361Y003108D01*
X013284Y003031D01*
X013284Y002409D01*
X013365Y002328D01*
X013169Y002328D01*
X013250Y002409D01*
X013250Y003031D01*
X013144Y003136D01*
X012680Y003136D01*
X012575Y003031D01*
X012575Y003030D01*
X012242Y003362D01*
X012519Y003362D01*
X012575Y003417D01*
X012575Y003409D01*
X012680Y003304D01*
X013144Y003304D01*
X013250Y003409D01*
X013250Y004031D01*
X013144Y004136D01*
X012680Y004136D01*
X012575Y004031D01*
X012575Y004023D01*
X012519Y004078D01*
X012014Y004078D01*
X011909Y003973D01*
X011909Y003696D01*
X011777Y003828D01*
X011777Y005092D01*
X012369Y004500D01*
X012465Y004460D01*
X012575Y004460D01*
X012575Y004409D01*
X012680Y004304D01*
X013144Y004304D01*
X013250Y004409D01*
X013250Y005031D01*
X013144Y005136D01*
X012680Y005136D01*
X012575Y005031D01*
X012575Y005030D01*
X012242Y005362D01*
X012519Y005362D01*
X012575Y005417D01*
X012575Y005409D01*
X012680Y005304D01*
X013144Y005304D01*
X013250Y005409D01*
X013250Y006031D01*
X013144Y006136D01*
X012680Y006136D01*
X012575Y006031D01*
X012575Y006023D01*
X012519Y006078D01*
X012027Y006078D01*
X012027Y007112D01*
X012269Y007112D01*
X012375Y007217D01*
X012375Y007723D01*
X012269Y007828D01*
X011777Y007828D01*
X011777Y008342D01*
X012507Y007612D01*
X012507Y006888D01*
X012504Y006879D01*
X012507Y006837D01*
X012507Y006794D01*
X012510Y006785D01*
X012511Y006776D01*
X012530Y006738D01*
X012546Y006699D01*
X012553Y006692D01*
X012557Y006683D01*
X012575Y006668D01*
X012575Y006409D01*
X012680Y006304D01*
X013144Y006304D01*
X013250Y006409D01*
X013250Y007031D01*
X013144Y007136D01*
X013027Y007136D01*
X013027Y007772D01*
X012987Y007867D01*
X012914Y007940D01*
X012027Y008828D01*
X012027Y009210D01*
X013075Y009210D01*
X013075Y009159D01*
X013180Y009054D01*
X013644Y009054D01*
X013750Y009159D01*
X013750Y009781D01*
X013644Y009886D01*
X013180Y009886D01*
X013075Y009781D01*
X013075Y009730D01*
X012027Y009730D01*
X012027Y011461D01*
X013390Y011461D01*
X013192Y011263D01*
X013152Y011167D01*
X013152Y011108D01*
X013075Y011031D01*
X013075Y010409D01*
X013180Y010304D01*
X013644Y010304D01*
X013750Y010409D01*
X013750Y011031D01*
X013722Y011058D01*
X013914Y011250D01*
X013987Y011323D01*
X014027Y011418D01*
X014027Y012272D01*
X013987Y012367D01*
X014420Y012367D01*
X014438Y012385D01*
X014889Y012385D01*
X014985Y012425D01*
X015114Y012554D01*
X015394Y012554D01*
X015500Y012659D01*
X015500Y012681D01*
X015509Y012649D01*
X015537Y012599D01*
X015578Y012558D01*
X015629Y012529D01*
X015685Y012514D01*
X015871Y012514D01*
X016057Y012514D01*
X016113Y012529D01*
X016164Y012558D01*
X016205Y012599D01*
X016233Y012649D01*
X016248Y012705D01*
X016248Y012970D01*
X015871Y012970D01*
X016248Y012970D01*
X016248Y013235D01*
X016233Y013291D01*
X016205Y013341D01*
X016164Y013382D01*
X016113Y013411D01*
X016057Y013426D01*
X015871Y013426D01*
X015685Y013426D01*
X015629Y013411D01*
X015578Y013382D01*
X015537Y013341D01*
X015509Y013291D01*
X015500Y013259D01*
X015500Y013281D01*
X015422Y013358D01*
X015422Y014758D01*
X015624Y014960D01*
X016318Y014960D01*
X016414Y015000D01*
X016487Y015073D01*
X016633Y015218D01*
X016672Y015314D01*
X016672Y015356D01*
X018128Y015356D01*
X018206Y015278D01*
X018257Y015278D01*
X018257Y013668D01*
X018296Y013573D01*
X018659Y013210D01*
X018659Y012967D01*
X018764Y012862D01*
X019269Y012862D01*
X019375Y012967D01*
X019375Y013473D01*
X019269Y013578D01*
X019026Y013578D01*
X018777Y013828D01*
X018777Y015278D01*
X018827Y015278D01*
X018933Y015384D01*
X018933Y015848D01*
X018827Y015953D01*
X018206Y015953D01*
X018128Y015876D01*
X016672Y015876D01*
X016672Y016082D01*
X016750Y016159D01*
X016750Y016181D01*
X016759Y016149D01*
X016787Y016099D01*
X016828Y016058D01*
X016879Y016029D01*
X016935Y016014D01*
X017121Y016014D01*
X017307Y016014D01*
X017363Y016029D01*
X017414Y016058D01*
X017455Y016099D01*
X017483Y016149D01*
X017498Y016205D01*
X017498Y016470D01*
X017121Y016470D01*
X017498Y016470D01*
X017498Y016735D01*
X017483Y016791D01*
X017455Y016841D01*
X017414Y016882D01*
X017363Y016911D01*
X017307Y016926D01*
X017121Y016926D01*
X016935Y016926D01*
X016879Y016911D01*
X016828Y016882D01*
X016787Y016841D01*
X016759Y016791D01*
X016750Y016759D01*
X016750Y016781D01*
X016644Y016886D01*
X016364Y016886D01*
X016157Y017093D01*
X016157Y017401D01*
X016175Y017419D01*
X016175Y018513D01*
X016224Y018513D01*
X016392Y018582D01*
X016520Y018711D01*
X016590Y018879D01*
X016590Y019061D01*
X016520Y019229D01*
X016392Y019358D01*
X016224Y019427D01*
X016042Y019427D01*
X015874Y019358D01*
X015745Y019229D01*
X015676Y019061D01*
X015676Y018879D01*
X015745Y018711D01*
X015798Y018658D01*
X014863Y018658D01*
X014820Y018683D01*
X014773Y018696D01*
X014788Y018711D01*
X014858Y018879D01*
X014858Y019061D01*
X014788Y019229D01*
X014659Y019358D01*
X014491Y019427D01*
X014310Y019427D01*
X014142Y019358D01*
X014013Y019229D01*
X013943Y019061D01*
X013943Y018879D01*
X014013Y018711D01*
X014142Y018582D01*
X014310Y018513D01*
X014320Y018513D01*
X014318Y018507D01*
X014318Y017986D01*
X014637Y017986D01*
X014637Y017986D01*
X014318Y017986D01*
X014318Y017480D01*
X014069Y017480D01*
X014069Y018552D01*
X013963Y018658D01*
X013027Y018658D01*
X012921Y018552D01*
X012921Y018375D01*
X012914Y018382D01*
X012863Y018411D01*
X012807Y018426D01*
X012621Y018426D01*
X012435Y018426D01*
X012379Y018411D01*
X012328Y018382D01*
X012287Y018341D01*
X012259Y018291D01*
X012250Y018259D01*
X012250Y018281D01*
X012144Y018386D01*
X011680Y018386D01*
X011575Y018281D01*
X011575Y018000D01*
X011546Y017972D01*
X011507Y017876D01*
X011507Y017848D01*
X009414Y019940D01*
X009318Y019980D01*
X007465Y019980D01*
X007369Y019940D01*
X007296Y019867D01*
X006949Y019520D01*
X006539Y019520D01*
X006217Y019198D01*
X006217Y018788D01*
X005619Y018190D01*
X005546Y018117D01*
X005507Y018022D01*
X005507Y017662D01*
X005456Y017662D01*
X005350Y017556D01*
X005350Y017092D01*
X005456Y016987D01*
X006077Y016987D01*
X006183Y017092D01*
X006183Y017556D01*
X006077Y017662D01*
X006027Y017662D01*
X006027Y017862D01*
X006217Y018052D01*
X006217Y017525D01*
X006322Y017420D01*
X006507Y017420D01*
X006507Y017418D01*
X006546Y017323D01*
X006619Y017250D01*
X006619Y017250D01*
X007296Y016573D01*
X007296Y016573D01*
X007369Y016500D01*
X007417Y016480D01*
X006183Y016480D01*
X006183Y016848D01*
X006077Y016953D01*
X005456Y016953D01*
X005350Y016848D01*
X005350Y016384D01*
X005456Y016278D01*
X005457Y016278D01*
X005379Y016200D01*
X003644Y016200D01*
X003623Y016252D01*
X003468Y016406D01*
X003266Y016490D01*
X003047Y016490D01*
X002845Y016406D01*
X002690Y016252D01*
X002607Y016049D01*
X002607Y015831D01*
X002690Y015628D01*
X002845Y015474D01*
X003047Y015390D01*
X003266Y015390D01*
X003468Y015474D01*
X003623Y015628D01*
X003644Y015680D01*
X005538Y015680D01*
X005634Y015720D01*
X005874Y015960D01*
X007130Y015960D01*
X006981Y015898D01*
X006839Y015756D01*
X006762Y015570D01*
X006762Y015370D01*
X006772Y015343D01*
X006659Y015230D01*
X006208Y015230D01*
X006208Y015281D01*
X006103Y015386D01*
X005639Y015386D01*
X005534Y015281D01*
X005534Y015259D01*
X005525Y015291D01*
X005496Y015341D01*
X005455Y015382D01*
X005405Y015411D01*
X005349Y015426D01*
X005162Y015426D01*
X004976Y015426D01*
X004920Y015411D01*
X004870Y015382D01*
X004829Y015341D01*
X004800Y015291D01*
X004785Y015235D01*
X004785Y014970D01*
X005162Y014970D01*
X004785Y014970D01*
X004785Y014705D01*
X004800Y014649D01*
X004829Y014599D01*
X004870Y014558D01*
X004920Y014529D01*
X004976Y014514D01*
X005162Y014514D01*
X005162Y014970D01*
X005162Y014970D01*
X005162Y014970D01*
X005162Y015426D01*
X005162Y014970D01*
X005162Y014970D01*
X005162Y014514D01*
X005349Y014514D01*
X005405Y014529D01*
X005455Y014558D01*
X005496Y014599D01*
X005525Y014649D01*
X005534Y014681D01*
X005534Y014659D01*
X005639Y014554D01*
X006103Y014554D01*
X006208Y014659D01*
X006208Y014710D01*
X006818Y014710D01*
X006914Y014750D01*
X007140Y014976D01*
X007166Y014965D01*
X007367Y014965D01*
X007393Y014976D01*
X007911Y014458D01*
X007869Y014440D01*
X007393Y013964D01*
X007367Y013975D01*
X007166Y013975D01*
X007140Y013964D01*
X006914Y014190D01*
X006818Y014230D01*
X006208Y014230D01*
X006208Y014281D01*
X006103Y014386D01*
X005639Y014386D01*
X005534Y014281D01*
X005534Y014259D01*
X005525Y014291D01*
X005496Y014341D01*
X005455Y014382D01*
X005405Y014411D01*
X005349Y014426D01*
X005162Y014426D01*
X004976Y014426D01*
X004920Y014411D01*
X004870Y014382D01*
X004829Y014341D01*
X004800Y014291D01*
X004785Y014235D01*
X004785Y013970D01*
X005162Y013970D01*
X004785Y013970D01*
X004785Y013705D01*
X004800Y013649D01*
X004829Y013599D01*
X004870Y013558D01*
X004920Y013529D01*
X004976Y013514D01*
X005162Y013514D01*
X005162Y013970D01*
X005162Y013970D01*
X005162Y013970D01*
X005162Y014426D01*
X005162Y013970D01*
X005162Y013970D01*
X005162Y013514D01*
X005349Y013514D01*
X005405Y013529D01*
X005455Y013558D01*
X005496Y013599D01*
X005525Y013649D01*
X005534Y013681D01*
X005534Y013659D01*
X005639Y013554D01*
X006103Y013554D01*
X006208Y013659D01*
X006208Y013710D01*
X006659Y013710D01*
X006772Y013597D01*
X006762Y013570D01*
X006762Y013370D01*
X006819Y013230D01*
X005124Y013230D01*
X004164Y014190D01*
X004068Y014230D01*
X001754Y014230D01*
X001733Y014282D01*
X001578Y014436D01*
X001376Y014520D01*
X001157Y014520D01*
X000955Y014436D01*
X000800Y014282D01*
X000717Y014079D01*
X000717Y013861D01*
X000800Y013658D01*
X000955Y013504D01*
X001037Y013470D01*
X000955Y013436D01*
X000800Y013282D01*
X000717Y013079D01*
X000717Y012861D01*
X000800Y012658D01*
X000955Y012504D01*
X001037Y012470D01*
X000955Y012436D01*
X000800Y012282D01*
X000717Y012079D01*
X000717Y011861D01*
X000800Y011658D01*
X000955Y011504D01*
X000988Y011490D01*
X000957Y011475D01*
X000882Y011420D01*
X000817Y011354D01*
X000762Y011279D01*
X000720Y011196D01*
X000691Y011108D01*
X000677Y011016D01*
X000677Y010970D01*
X001267Y010970D01*
X001857Y010970D01*
X001857Y011016D01*
X001842Y011108D01*
X001813Y011196D01*
X001771Y011279D01*
X001717Y011354D01*
X001651Y011420D01*
X001576Y011475D01*
X001545Y011490D01*
X001578Y011504D01*
X001733Y011658D01*
X001817Y011861D01*
X001817Y012079D01*
X001733Y012282D01*
X001578Y012436D01*
X001497Y012470D01*
X001578Y012504D01*
X001733Y012658D01*
X001817Y012861D01*
X001817Y013079D01*
X001733Y013282D01*
X001578Y013436D01*
X001497Y013470D01*
X001578Y013504D01*
X001733Y013658D01*
X001754Y013710D01*
X003909Y013710D01*
X004869Y012750D01*
X004965Y012710D01*
X007818Y012710D01*
X007914Y012750D01*
X008809Y013645D01*
X009008Y013645D01*
X009008Y012472D01*
X009113Y012367D01*
X009546Y012367D01*
X009119Y011940D01*
X009046Y011867D01*
X009007Y011772D01*
X009007Y010855D01*
X009003Y010815D01*
X009007Y010804D01*
X009007Y010792D01*
X009022Y010755D01*
X009034Y010719D01*
X009034Y010409D01*
X009139Y010304D01*
X009603Y010304D01*
X009708Y010409D01*
X009708Y011031D01*
X009603Y011136D01*
X009527Y011136D01*
X009527Y011612D01*
X009873Y011959D01*
X009873Y011937D01*
X010192Y011937D01*
X010192Y011937D01*
X010192Y011421D01*
X010247Y011421D01*
X010247Y011078D01*
X010014Y011078D01*
X009909Y010973D01*
X009909Y010467D01*
X010014Y010362D01*
X010519Y010362D01*
X010562Y010404D01*
X010562Y009730D01*
X009708Y009730D01*
X009708Y009781D01*
X009603Y009886D01*
X009139Y009886D01*
X009034Y009781D01*
X009034Y009159D01*
X009139Y009054D01*
X009603Y009054D01*
X009708Y009159D01*
X009708Y009210D01*
X010562Y009210D01*
X010562Y008633D01*
X009869Y007940D01*
X009796Y007867D01*
X009757Y007772D01*
X009757Y007136D01*
X009639Y007136D01*
X009534Y007031D01*
X009534Y006409D01*
X009639Y006304D01*
X010103Y006304D01*
X010208Y006409D01*
X010208Y006668D01*
X010226Y006683D01*
X010230Y006692D01*
X010237Y006699D01*
X010253Y006738D01*
X010272Y006776D01*
X010273Y006785D01*
X010277Y006794D01*
X010277Y006837D01*
X010280Y006879D01*
X010277Y006888D01*
X010277Y007612D01*
X011007Y008342D01*
X011007Y007828D01*
X010514Y007828D01*
X010409Y007723D01*
X010409Y007217D01*
X010514Y007112D01*
X010757Y007112D01*
X010757Y006078D01*
X010264Y006078D01*
X010208Y006023D01*
X010208Y006031D01*
X010103Y006136D01*
X009639Y006136D01*
X009534Y006031D01*
X009534Y005409D01*
X009639Y005304D01*
X010103Y005304D01*
X010208Y005409D01*
X010208Y005417D01*
X010264Y005362D01*
X010757Y005362D01*
X010757Y005328D01*
X010409Y004980D01*
X010208Y004980D01*
X010208Y005031D01*
X010103Y005136D01*
X009639Y005136D01*
X009534Y005031D01*
X009534Y004409D01*
X009639Y004304D01*
X010103Y004304D01*
X010208Y004409D01*
X010208Y004460D01*
X010568Y004460D01*
X010664Y004500D01*
X011007Y004842D01*
X011007Y003828D01*
X010875Y003696D01*
X010875Y003973D01*
X010769Y004078D01*
X010264Y004078D01*
X010208Y004023D01*
X010208Y004031D01*
X010103Y004136D01*
X009639Y004136D01*
X009534Y004031D01*
X009534Y003409D01*
X009639Y003304D01*
X010103Y003304D01*
X010208Y003409D01*
X010208Y003417D01*
X010264Y003362D01*
X010541Y003362D01*
X010208Y003030D01*
X010208Y003031D01*
X010103Y003136D01*
X009639Y003136D01*
X009534Y003031D01*
X009534Y002409D01*
X009615Y002328D01*
X009419Y002328D01*
X009500Y002409D01*
X009500Y003031D01*
X009422Y003108D01*
X009422Y003126D01*
X009383Y003222D01*
X009301Y003304D01*
X009394Y003304D01*
X009500Y003409D01*
X009500Y004031D01*
X009394Y004136D01*
X009094Y004136D01*
X009077Y004153D01*
X009072Y004155D01*
X009067Y004159D01*
X009024Y004175D01*
X008982Y004193D01*
X008976Y004193D01*
X008970Y004195D01*
X008924Y004193D01*
X008785Y004193D01*
X008785Y004460D01*
X008825Y004460D01*
X008825Y004409D01*
X008930Y004304D01*
X009394Y004304D01*
X009500Y004409D01*
X009500Y005031D01*
X009394Y005136D01*
X008930Y005136D01*
X008825Y005031D01*
X008825Y004980D01*
X008785Y004980D01*
X008785Y005247D01*
X008924Y005247D01*
X008970Y005245D01*
X008976Y005247D01*
X008982Y005247D01*
X009024Y005265D01*
X009067Y005281D01*
X009072Y005285D01*
X009077Y005287D01*
X009094Y005304D01*
X009394Y005304D01*
X009500Y005409D01*
X009500Y006031D01*
X009394Y006136D01*
X009301Y006136D01*
X009383Y006218D01*
X009422Y006314D01*
X009422Y006332D01*
X009500Y006409D01*
X009500Y007031D01*
X009394Y007136D01*
X008930Y007136D01*
X008825Y007031D01*
X008825Y006409D01*
X008832Y006403D01*
X008785Y006356D01*
X008785Y007682D01*
X008680Y007788D01*
X008485Y007788D01*
X008417Y007816D01*
X008152Y007816D01*
X007209Y008758D01*
X007088Y008809D01*
X007117Y008859D01*
X007132Y008915D01*
X007132Y009220D01*
X007132Y009525D01*
X007117Y009581D01*
X007088Y009631D01*
X007047Y009672D01*
X006997Y009701D01*
X006941Y009716D01*
X006676Y009716D01*
X006411Y009716D01*
X006355Y009701D01*
X006305Y009672D01*
X006264Y009631D01*
X006235Y009581D01*
X006220Y009525D01*
X006220Y009220D01*
X006220Y008915D01*
X006235Y008859D01*
X006263Y008810D01*
X004176Y008810D01*
X004176Y009091D01*
X004083Y009316D01*
X003984Y009415D01*
X004027Y009415D01*
X004277Y009519D01*
X004468Y009710D01*
X004572Y009960D01*
X004572Y010230D01*
X004468Y010480D01*
X004277Y010671D01*
X004027Y010775D01*
X003756Y010775D01*
X003506Y010671D01*
X003315Y010480D01*
X003212Y010230D01*
X003212Y009960D01*
X003315Y009710D01*
X003445Y009580D01*
X001654Y009580D01*
X001733Y009658D01*
X001817Y009861D01*
X001817Y010079D01*
X001733Y010282D01*
X001578Y010436D01*
X001545Y010450D01*
X001576Y010465D01*
X001651Y010520D01*
X001717Y010586D01*
X001771Y010661D01*
X001813Y010744D01*
X001842Y010832D01*
X001857Y010924D01*
X001857Y010970D01*
X001267Y010970D01*
X001267Y010970D01*
X000677Y010970D01*
X000677Y010924D01*
X000691Y010832D01*
X000720Y010744D01*
X000762Y010661D01*
X000817Y010586D01*
X000882Y010520D01*
X000957Y010465D01*
X000988Y010450D01*
X000955Y010436D01*
X000800Y010282D01*
X000717Y010079D01*
X000717Y009861D01*
X000800Y009658D01*
X000955Y009504D01*
X000958Y009502D01*
X000921Y009487D01*
X000750Y009316D01*
X000657Y009091D01*
X000657Y008849D01*
X000750Y008624D01*
X000921Y008453D01*
X001145Y008360D01*
X002956Y008360D01*
X002956Y007766D01*
X002638Y007766D01*
X002517Y007816D01*
X001116Y007816D01*
X001048Y007788D01*
X000854Y007788D01*
X000748Y007682D01*
X000748Y006949D01*
X000723Y006905D01*
X000708Y006849D01*
X000708Y006689D01*
X001184Y006689D01*
X001184Y006688D01*
X001184Y006337D01*
X001184Y006295D01*
X001184Y006688D01*
X001184Y006688D01*
X000708Y006688D01*
X000708Y006528D01*
X000718Y006492D01*
X000708Y006456D01*
X000708Y006295D01*
X001184Y006295D01*
X001184Y006295D01*
X001660Y006295D01*
X001660Y006456D01*
X001650Y006492D01*
X001660Y006528D01*
X001660Y006688D01*
X001184Y006688D01*
X001184Y006689D01*
X001660Y006689D01*
X001660Y006849D01*
X001645Y006905D01*
X001620Y006949D01*
X001620Y007136D01*
X002309Y007136D01*
X002352Y007092D01*
X002352Y005847D01*
X001660Y005847D01*
X001660Y005901D01*
X001184Y005901D01*
X001184Y005901D01*
X000708Y005901D01*
X000708Y005740D01*
X000723Y005684D01*
X000748Y005641D01*
X000748Y003799D01*
X000723Y003756D01*
X000708Y003700D01*
X000708Y003539D01*
X001184Y003539D01*
X001660Y003539D01*
X001660Y003593D01*
X002352Y003593D01*
X002352Y001865D01*
X001965Y002252D01*
X001840Y002304D01*
X001705Y002304D01*
X001620Y002304D01*
X001620Y002491D01*
X001645Y002535D01*
X001660Y002591D01*
X001660Y002751D01*
X001184Y002751D01*
X000708Y002751D01*
X000708Y002591D01*
X000723Y002535D01*
X000748Y002491D01*
X000748Y001758D01*
X000854Y001652D01*
X001048Y001652D01*
X001116Y001624D01*
X001632Y001624D01*
X001978Y001277D01*
X002074Y001182D01*
X002199Y001130D01*
X002496Y001130D01*
X002027Y001229D02*
X000362Y001229D01*
X000362Y001467D02*
X001789Y001467D01*
X002273Y001944D02*
X002352Y001944D01*
X002352Y002183D02*
X002035Y002183D01*
X002352Y002421D02*
X001620Y002421D01*
X001660Y002660D02*
X002352Y002660D01*
X002352Y002898D02*
X001660Y002898D01*
X001660Y002912D02*
X001650Y002948D01*
X001660Y002984D01*
X001660Y003145D01*
X001184Y003145D01*
X001184Y002793D01*
X001184Y002752D01*
X001184Y003145D01*
X001184Y003145D01*
X001184Y003145D01*
X000708Y003145D01*
X000708Y002984D01*
X000718Y002948D01*
X000708Y002912D01*
X000708Y002752D01*
X001184Y002752D01*
X001184Y002752D01*
X001184Y002751D01*
X001184Y002752D01*
X001660Y002752D01*
X001660Y002912D01*
X001660Y003137D02*
X002352Y003137D01*
X002352Y003375D02*
X001659Y003375D01*
X001660Y003378D02*
X001660Y003539D01*
X001184Y003539D01*
X001184Y003539D01*
X001184Y003539D01*
X000708Y003539D01*
X000708Y003378D01*
X000718Y003342D01*
X000708Y003306D01*
X000708Y003145D01*
X001184Y003145D01*
X001184Y003145D01*
X001660Y003145D01*
X001660Y003306D01*
X001650Y003342D01*
X001660Y003378D01*
X001184Y003375D02*
X001184Y003375D01*
X001184Y003539D02*
X001184Y003187D01*
X001184Y003145D01*
X001184Y003539D01*
X001184Y003539D01*
X001184Y003145D02*
X001184Y003145D01*
X001184Y003137D02*
X001184Y003137D01*
X001184Y002898D02*
X001184Y002898D01*
X000708Y002898D02*
X000362Y002898D01*
X000362Y002660D02*
X000708Y002660D01*
X000748Y002421D02*
X000362Y002421D01*
X000362Y002183D02*
X000748Y002183D01*
X000748Y001944D02*
X000362Y001944D01*
X000362Y001706D02*
X000800Y001706D01*
X000362Y000990D02*
X005036Y000990D01*
X005035Y000752D02*
X000362Y000752D01*
X000362Y000513D02*
X005035Y000513D01*
X005412Y000720D02*
X005412Y000720D01*
X005412Y001176D01*
X005412Y000720D01*
X005412Y000720D01*
X005412Y000752D02*
X005412Y000752D01*
X005412Y000990D02*
X005412Y000990D01*
X004625Y001229D02*
X006546Y001229D01*
X006308Y001467D02*
X004625Y001467D01*
X004706Y001706D02*
X006069Y001706D01*
X005831Y001944D02*
X004779Y001944D01*
X004779Y002183D02*
X005592Y002183D01*
X005376Y002421D02*
X004779Y002421D01*
X002352Y005999D02*
X001660Y005999D01*
X001660Y006062D02*
X001660Y005901D01*
X001184Y005901D01*
X001184Y005901D01*
X000708Y005901D01*
X000708Y006062D01*
X000718Y006098D01*
X000708Y006134D01*
X000708Y006295D01*
X001184Y006295D01*
X001184Y006295D01*
X001184Y006295D01*
X001660Y006295D01*
X001660Y006134D01*
X001650Y006098D01*
X001660Y006062D01*
X001660Y006237D02*
X002352Y006237D01*
X002352Y006476D02*
X001655Y006476D01*
X001660Y006714D02*
X002352Y006714D01*
X002352Y006953D02*
X001620Y006953D01*
X001184Y006476D02*
X001184Y006476D01*
X001184Y006295D02*
X001184Y005943D01*
X001184Y005901D01*
X001184Y005901D01*
X001184Y006295D01*
X001184Y006295D01*
X001184Y006237D02*
X001184Y006237D01*
X001184Y005999D02*
X001184Y005999D01*
X000708Y005999D02*
X000362Y005999D01*
X000362Y005760D02*
X000708Y005760D01*
X000748Y005522D02*
X000362Y005522D01*
X000362Y005283D02*
X000748Y005283D01*
X000748Y005045D02*
X000362Y005045D01*
X000362Y004806D02*
X000748Y004806D01*
X000748Y004568D02*
X000362Y004568D01*
X000362Y004329D02*
X000748Y004329D01*
X000748Y004091D02*
X000362Y004091D01*
X000362Y003852D02*
X000748Y003852D01*
X000708Y003614D02*
X000362Y003614D01*
X000362Y003375D02*
X000709Y003375D01*
X000708Y003137D02*
X000362Y003137D01*
X000362Y006237D02*
X000708Y006237D01*
X000713Y006476D02*
X000362Y006476D01*
X000362Y006714D02*
X000708Y006714D01*
X000748Y006953D02*
X000362Y006953D01*
X000362Y007191D02*
X000748Y007191D01*
X000748Y007430D02*
X000362Y007430D01*
X000362Y007668D02*
X000748Y007668D01*
X000362Y007907D02*
X002956Y007907D01*
X002956Y008145D02*
X000362Y008145D01*
X000362Y008384D02*
X001089Y008384D01*
X000752Y008622D02*
X000362Y008622D01*
X000362Y008861D02*
X000657Y008861D01*
X000660Y009099D02*
X000362Y009099D01*
X000362Y009338D02*
X000772Y009338D01*
X000883Y009576D02*
X000362Y009576D01*
X000362Y009815D02*
X000736Y009815D01*
X000717Y010053D02*
X000362Y010053D01*
X000362Y010292D02*
X000810Y010292D01*
X000872Y010530D02*
X000362Y010530D01*
X000362Y010769D02*
X000712Y010769D01*
X000677Y011007D02*
X000362Y011007D01*
X000362Y011246D02*
X000745Y011246D01*
X000976Y011484D02*
X000362Y011484D01*
X000362Y011723D02*
X000774Y011723D01*
X000717Y011961D02*
X000362Y011961D01*
X000362Y012200D02*
X000766Y012200D01*
X000959Y012438D02*
X000362Y012438D01*
X000362Y012677D02*
X000793Y012677D01*
X000717Y012915D02*
X000362Y012915D01*
X000362Y013154D02*
X000747Y013154D01*
X000911Y013392D02*
X000362Y013392D01*
X000362Y013631D02*
X000828Y013631D01*
X000717Y013869D02*
X000362Y013869D01*
X000362Y014108D02*
X000728Y014108D01*
X000865Y014346D02*
X000362Y014346D01*
X000362Y014585D02*
X004843Y014585D01*
X004785Y014823D02*
X000362Y014823D01*
X000362Y015062D02*
X004785Y015062D01*
X004805Y015300D02*
X000362Y015300D01*
X000362Y015539D02*
X000944Y015539D01*
X000927Y015556D02*
X000992Y015490D01*
X001067Y015435D01*
X001150Y015393D01*
X001239Y015365D01*
X001330Y015350D01*
X001377Y015350D01*
X001423Y015350D01*
X001515Y015365D01*
X001603Y015393D01*
X001686Y015435D01*
X001761Y015490D01*
X001827Y015556D01*
X001881Y015631D01*
X001923Y015714D01*
X001952Y015802D01*
X001967Y015894D01*
X001967Y015940D01*
X001377Y015940D01*
X001967Y015940D01*
X001967Y015986D01*
X001952Y016078D01*
X001923Y016166D01*
X001881Y016249D01*
X001827Y016324D01*
X001761Y016390D01*
X001686Y016445D01*
X001603Y016487D01*
X001515Y016515D01*
X001423Y016530D01*
X001377Y016530D01*
X001377Y015940D01*
X001377Y015940D01*
X001377Y015940D01*
X001377Y015350D01*
X001377Y015940D01*
X001377Y015940D01*
X001377Y016530D01*
X001330Y016530D01*
X001239Y016515D01*
X001150Y016487D01*
X001067Y016445D01*
X000992Y016390D01*
X000927Y016324D01*
X000872Y016249D01*
X000830Y016166D01*
X000801Y016078D01*
X000787Y015986D01*
X000787Y015940D01*
X000787Y015894D01*
X000801Y015802D01*
X000830Y015714D01*
X000872Y015631D01*
X000927Y015556D01*
X000809Y015777D02*
X000362Y015777D01*
X000362Y016016D02*
X000791Y016016D01*
X000787Y015940D02*
X001377Y015940D01*
X000787Y015940D01*
X000876Y016254D02*
X000362Y016254D01*
X000362Y016493D02*
X001168Y016493D01*
X001377Y016493D02*
X001377Y016493D01*
X001585Y016493D02*
X005350Y016493D01*
X005433Y016254D02*
X003620Y016254D01*
X003533Y015539D02*
X006762Y015539D01*
X006729Y015300D02*
X006189Y015300D01*
X005553Y015300D02*
X005520Y015300D01*
X005162Y015300D02*
X005162Y015300D01*
X005162Y015062D02*
X005162Y015062D01*
X005162Y014823D02*
X005162Y014823D01*
X005162Y014585D02*
X005162Y014585D01*
X005162Y014346D02*
X005162Y014346D01*
X005162Y014108D02*
X005162Y014108D01*
X005162Y013869D02*
X005162Y013869D01*
X005162Y013631D02*
X005162Y013631D01*
X004962Y013392D02*
X006762Y013392D01*
X006738Y013631D02*
X006180Y013631D01*
X005562Y013631D02*
X005514Y013631D01*
X004810Y013631D02*
X004724Y013631D01*
X004785Y013869D02*
X004485Y013869D01*
X004247Y014108D02*
X004785Y014108D01*
X004834Y014346D02*
X001668Y014346D01*
X001705Y013631D02*
X003988Y013631D01*
X004227Y013392D02*
X001622Y013392D01*
X001786Y013154D02*
X004465Y013154D01*
X004704Y012915D02*
X001817Y012915D01*
X001740Y012677D02*
X003455Y012677D01*
X003593Y012815D02*
X003172Y012393D01*
X003172Y012095D01*
X003172Y011797D01*
X003593Y011375D01*
X003892Y011375D01*
X004190Y011375D01*
X004612Y011797D01*
X004612Y012095D01*
X003892Y012095D01*
X004612Y012095D01*
X004612Y012393D01*
X004190Y012815D01*
X003892Y012815D01*
X003892Y012095D01*
X003892Y012095D01*
X003892Y012095D01*
X003892Y011375D01*
X003892Y012095D01*
X003892Y012095D01*
X003892Y012815D01*
X003593Y012815D01*
X003216Y012438D02*
X001574Y012438D01*
X001767Y012200D02*
X003172Y012200D01*
X003172Y012095D02*
X003892Y012095D01*
X003172Y012095D01*
X003172Y011961D02*
X001817Y011961D01*
X001759Y011723D02*
X003246Y011723D01*
X003484Y011484D02*
X001557Y011484D01*
X001788Y011246D02*
X009007Y011246D01*
X008894Y011136D02*
X008430Y011136D01*
X008325Y011031D01*
X008325Y010980D01*
X008273Y010980D01*
X008273Y011070D01*
X008168Y011176D01*
X007546Y011176D01*
X007441Y011070D01*
X007441Y010370D01*
X007546Y010264D01*
X008168Y010264D01*
X008273Y010370D01*
X008273Y010460D01*
X008325Y010460D01*
X008325Y010409D01*
X008430Y010304D01*
X008894Y010304D01*
X009000Y010409D01*
X009000Y011031D01*
X008894Y011136D01*
X009000Y011007D02*
X009007Y011007D01*
X009000Y010769D02*
X009017Y010769D01*
X009000Y010530D02*
X009034Y010530D01*
X008894Y009886D02*
X008430Y009886D01*
X008325Y009781D01*
X008325Y009512D01*
X008291Y009480D01*
X008273Y009480D01*
X008273Y009570D01*
X008168Y009676D01*
X007546Y009676D01*
X007441Y009570D01*
X007441Y008870D01*
X007546Y008764D01*
X008168Y008764D01*
X008273Y008870D01*
X008273Y008960D01*
X008388Y008960D01*
X008434Y008958D01*
X008439Y008960D01*
X008444Y008960D01*
X008488Y008978D01*
X008531Y008994D01*
X008535Y008998D01*
X008540Y009000D01*
X008573Y009033D01*
X008596Y009054D01*
X008894Y009054D01*
X009000Y009159D01*
X009000Y009781D01*
X008894Y009886D01*
X008966Y009815D02*
X009067Y009815D01*
X009034Y009576D02*
X009000Y009576D01*
X009000Y009338D02*
X009034Y009338D01*
X009094Y009099D02*
X008940Y009099D01*
X009648Y009099D02*
X010562Y009099D01*
X010562Y008861D02*
X008264Y008861D01*
X008268Y009576D02*
X008325Y009576D01*
X008359Y009815D02*
X004512Y009815D01*
X004572Y010053D02*
X010562Y010053D01*
X010562Y009815D02*
X009675Y009815D01*
X009708Y010530D02*
X009909Y010530D01*
X009909Y010769D02*
X009708Y010769D01*
X009708Y011007D02*
X009943Y011007D01*
X010247Y011246D02*
X009527Y011246D01*
X009527Y011484D02*
X009940Y011484D01*
X009958Y011465D02*
X010009Y011436D01*
X010064Y011421D01*
X010192Y011421D01*
X010192Y011937D01*
X010192Y011937D01*
X009873Y011937D01*
X009873Y011612D01*
X009888Y011556D01*
X009917Y011506D01*
X009958Y011465D01*
X010192Y011484D02*
X010192Y011484D01*
X010192Y011723D02*
X010192Y011723D01*
X009873Y011723D02*
X009637Y011723D01*
X009378Y012200D02*
X004612Y012200D01*
X004612Y011961D02*
X009140Y011961D01*
X009007Y011723D02*
X004537Y011723D01*
X004299Y011484D02*
X009007Y011484D01*
X008325Y011007D02*
X008273Y011007D01*
X008195Y010292D02*
X010562Y010292D01*
X012027Y010292D02*
X014588Y010292D01*
X014615Y010264D02*
X015237Y010264D01*
X015342Y010370D01*
X015342Y011070D01*
X015237Y011176D01*
X014615Y011176D01*
X014510Y011070D01*
X014510Y010980D01*
X014458Y010980D01*
X014458Y011031D01*
X014353Y011136D01*
X013889Y011136D01*
X013784Y011031D01*
X013784Y010409D01*
X013889Y010304D01*
X014353Y010304D01*
X014458Y010409D01*
X014458Y010460D01*
X014510Y010460D01*
X014510Y010370D01*
X014615Y010264D01*
X014353Y009886D02*
X013889Y009886D01*
X013784Y009781D01*
X013784Y009159D01*
X013889Y009054D01*
X014170Y009054D01*
X014224Y009000D01*
X014319Y008960D01*
X014510Y008960D01*
X014510Y008870D01*
X014615Y008764D01*
X015237Y008764D01*
X015342Y008870D01*
X015342Y009570D01*
X015237Y009676D01*
X014615Y009676D01*
X014510Y009570D01*
X014510Y009480D01*
X014479Y009480D01*
X014458Y009500D01*
X014458Y009781D01*
X014353Y009886D01*
X014425Y009815D02*
X018220Y009815D01*
X018212Y010053D02*
X012027Y010053D01*
X012027Y009815D02*
X013109Y009815D01*
X013716Y009815D02*
X013817Y009815D01*
X013784Y009576D02*
X013750Y009576D01*
X013750Y009338D02*
X013784Y009338D01*
X013844Y009099D02*
X013690Y009099D01*
X013135Y009099D02*
X012027Y009099D01*
X012027Y008861D02*
X014519Y008861D01*
X014516Y009576D02*
X014458Y009576D01*
X015336Y009576D02*
X015665Y009576D01*
X015651Y009338D02*
X015342Y009338D01*
X015342Y009099D02*
X015651Y009099D01*
X015666Y008861D02*
X015333Y008861D01*
X015438Y008622D02*
X012232Y008622D01*
X012471Y008384D02*
X015199Y008384D01*
X014961Y008145D02*
X012709Y008145D01*
X012948Y007907D02*
X014722Y007907D01*
X013998Y007668D02*
X013027Y007668D01*
X013027Y007430D02*
X013998Y007430D01*
X013998Y007191D02*
X013027Y007191D01*
X013250Y006953D02*
X013284Y006953D01*
X013284Y006714D02*
X013250Y006714D01*
X013250Y006476D02*
X013284Y006476D01*
X013393Y006237D02*
X012027Y006237D01*
X012027Y006476D02*
X012575Y006476D01*
X012540Y006714D02*
X012027Y006714D01*
X012027Y006953D02*
X012507Y006953D01*
X012507Y007191D02*
X012348Y007191D01*
X012375Y007430D02*
X012507Y007430D01*
X012451Y007668D02*
X012375Y007668D01*
X012212Y007907D02*
X011777Y007907D01*
X011777Y008145D02*
X011974Y008145D01*
X011007Y008145D02*
X010809Y008145D01*
X011007Y007907D02*
X010571Y007907D01*
X010409Y007668D02*
X010332Y007668D01*
X010277Y007430D02*
X010409Y007430D01*
X010435Y007191D02*
X010277Y007191D01*
X010277Y006953D02*
X010757Y006953D01*
X010757Y006714D02*
X010243Y006714D01*
X010208Y006476D02*
X010757Y006476D01*
X010757Y006237D02*
X009390Y006237D01*
X009500Y006476D02*
X009534Y006476D01*
X009534Y006714D02*
X009500Y006714D01*
X009500Y006953D02*
X009534Y006953D01*
X009757Y007191D02*
X008785Y007191D01*
X008785Y006953D02*
X008825Y006953D01*
X008825Y006714D02*
X008785Y006714D01*
X008785Y006476D02*
X008825Y006476D01*
X009500Y005999D02*
X009534Y005999D01*
X009534Y005760D02*
X009500Y005760D01*
X009500Y005522D02*
X009534Y005522D01*
X009547Y005045D02*
X009486Y005045D01*
X009500Y004806D02*
X009534Y004806D01*
X009534Y004568D02*
X009500Y004568D01*
X009420Y004329D02*
X009614Y004329D01*
X009593Y004091D02*
X009440Y004091D01*
X009500Y003852D02*
X009534Y003852D01*
X009534Y003614D02*
X009500Y003614D01*
X009466Y003375D02*
X009568Y003375D01*
X009418Y003137D02*
X010315Y003137D01*
X010251Y003375D02*
X010174Y003375D01*
X009534Y002898D02*
X009500Y002898D01*
X009500Y002660D02*
X009534Y002660D01*
X009534Y002421D02*
X009500Y002421D01*
X010875Y003852D02*
X011007Y003852D01*
X011007Y004091D02*
X010149Y004091D01*
X010128Y004329D02*
X011007Y004329D01*
X011007Y004568D02*
X010732Y004568D01*
X010970Y004806D02*
X011007Y004806D01*
X010712Y005283D02*
X009070Y005283D01*
X008839Y005045D02*
X008785Y005045D01*
X008785Y004329D02*
X008905Y004329D01*
X010195Y005045D02*
X010473Y005045D01*
X011777Y005045D02*
X011824Y005045D01*
X011777Y004806D02*
X012063Y004806D01*
X012301Y004568D02*
X011777Y004568D01*
X011777Y004329D02*
X012655Y004329D01*
X012635Y004091D02*
X011777Y004091D01*
X011777Y003852D02*
X011909Y003852D01*
X012532Y003375D02*
X012609Y003375D01*
X012468Y003137D02*
X013365Y003137D01*
X013318Y003375D02*
X013216Y003375D01*
X013250Y003614D02*
X013284Y003614D01*
X013284Y003852D02*
X013250Y003852D01*
X013190Y004091D02*
X013343Y004091D01*
X013364Y004329D02*
X013170Y004329D01*
X013250Y004568D02*
X013284Y004568D01*
X013284Y004806D02*
X013250Y004806D01*
X013236Y005045D02*
X013297Y005045D01*
X013466Y005283D02*
X012321Y005283D01*
X012560Y005045D02*
X012589Y005045D01*
X013250Y005522D02*
X013284Y005522D01*
X013284Y005760D02*
X013250Y005760D01*
X013250Y005999D02*
X013284Y005999D01*
X013958Y006476D02*
X013998Y006476D01*
X013998Y006714D02*
X013958Y006714D01*
X013958Y006953D02*
X013998Y006953D01*
X013945Y005045D02*
X013998Y005045D01*
X013998Y004329D02*
X013878Y004329D01*
X013284Y002898D02*
X013250Y002898D01*
X013250Y002660D02*
X013284Y002660D01*
X013284Y002421D02*
X013250Y002421D01*
X016237Y001229D02*
X018159Y001229D01*
X018159Y001467D02*
X016475Y001467D01*
X016714Y001706D02*
X018078Y001706D01*
X018004Y001944D02*
X016952Y001944D01*
X017191Y002183D02*
X018004Y002183D01*
X018004Y002421D02*
X017408Y002421D01*
X017371Y001176D02*
X017371Y000720D01*
X017371Y000720D01*
X017371Y000720D01*
X017371Y001176D01*
X017371Y000990D02*
X017371Y000990D01*
X017371Y000752D02*
X017371Y000752D01*
X017748Y000752D02*
X022417Y000752D01*
X022417Y000990D02*
X017747Y000990D01*
X017748Y000513D02*
X022417Y000513D01*
X022417Y001229D02*
X020756Y001229D01*
X020995Y001467D02*
X022417Y001467D01*
X022417Y001706D02*
X021983Y001706D01*
X022035Y001944D02*
X022417Y001944D01*
X022417Y002183D02*
X022035Y002183D01*
X022035Y002421D02*
X022417Y002421D01*
X022417Y002660D02*
X022075Y002660D01*
X022075Y002898D02*
X022417Y002898D01*
X022417Y003137D02*
X022075Y003137D01*
X022074Y003375D02*
X022417Y003375D01*
X022417Y003614D02*
X022075Y003614D01*
X022075Y003539D02*
X021599Y003539D01*
X021599Y003539D01*
X022075Y003539D01*
X022035Y003852D02*
X022417Y003852D01*
X022417Y004091D02*
X022035Y004091D01*
X022035Y004329D02*
X022417Y004329D01*
X022417Y004568D02*
X022035Y004568D01*
X022035Y004806D02*
X022417Y004806D01*
X022417Y005045D02*
X022035Y005045D01*
X022035Y005283D02*
X022417Y005283D01*
X022417Y005522D02*
X022035Y005522D01*
X022075Y005760D02*
X022417Y005760D01*
X022417Y005999D02*
X022075Y005999D01*
X022075Y006062D02*
X022075Y005901D01*
X021599Y005901D01*
X021599Y005901D01*
X021599Y006295D01*
X021599Y006295D01*
X022075Y006295D01*
X022075Y006134D01*
X022066Y006098D01*
X022075Y006062D01*
X022075Y006237D02*
X022417Y006237D01*
X022417Y006476D02*
X022070Y006476D01*
X022075Y006714D02*
X022417Y006714D01*
X022417Y006953D02*
X022035Y006953D01*
X022035Y007191D02*
X022417Y007191D01*
X022417Y007430D02*
X022035Y007430D01*
X022035Y007668D02*
X022417Y007668D01*
X022417Y007907D02*
X019827Y007907D01*
X019827Y008145D02*
X022417Y008145D01*
X022417Y008384D02*
X021695Y008384D01*
X022031Y008622D02*
X022417Y008622D01*
X022417Y008861D02*
X022127Y008861D01*
X022123Y009099D02*
X022417Y009099D01*
X022417Y009338D02*
X022012Y009338D01*
X021900Y009576D02*
X022417Y009576D01*
X022417Y009815D02*
X022048Y009815D01*
X022067Y010053D02*
X022417Y010053D01*
X022417Y010292D02*
X021973Y010292D01*
X021911Y010530D02*
X022417Y010530D01*
X022417Y010769D02*
X022072Y010769D01*
X022107Y010970D02*
X021517Y010970D01*
X022107Y010970D01*
X022107Y011007D02*
X022417Y011007D01*
X022417Y011246D02*
X022038Y011246D01*
X021807Y011484D02*
X022417Y011484D01*
X022417Y011723D02*
X022009Y011723D01*
X022067Y011961D02*
X022417Y011961D01*
X022417Y012200D02*
X022017Y012200D01*
X021824Y012438D02*
X022417Y012438D01*
X022417Y012677D02*
X021990Y012677D01*
X022067Y012915D02*
X022417Y012915D01*
X022417Y013154D02*
X022036Y013154D01*
X021872Y013392D02*
X022417Y013392D01*
X022417Y013631D02*
X021955Y013631D01*
X022067Y013869D02*
X022417Y013869D01*
X022417Y014108D02*
X022055Y014108D01*
X021918Y014346D02*
X022417Y014346D01*
X022417Y014585D02*
X020277Y014585D01*
X020277Y014823D02*
X022417Y014823D01*
X022417Y015062D02*
X020277Y015062D01*
X020349Y015300D02*
X022417Y015300D01*
X022417Y015539D02*
X020433Y015539D01*
X020433Y015777D02*
X022417Y015777D01*
X022417Y016016D02*
X020356Y016016D01*
X020327Y015987D02*
X020433Y016092D01*
X020433Y016556D01*
X020411Y016578D01*
X020989Y017213D01*
X021367Y017213D01*
X021472Y017319D01*
X021472Y017940D01*
X021367Y018046D01*
X020667Y018046D01*
X020561Y017940D01*
X020561Y017515D01*
X019829Y016711D01*
X019796Y016678D01*
X019794Y016672D01*
X019790Y016668D01*
X019787Y016662D01*
X019706Y016662D01*
X019600Y016556D01*
X019600Y016092D01*
X019706Y015987D01*
X020327Y015987D01*
X020433Y016254D02*
X022417Y016254D01*
X022417Y016493D02*
X020433Y016493D01*
X020550Y016731D02*
X022417Y016731D01*
X022417Y016970D02*
X020767Y016970D01*
X020985Y017208D02*
X022417Y017208D01*
X022417Y017447D02*
X021472Y017447D01*
X021472Y017685D02*
X022417Y017685D01*
X022417Y017924D02*
X021472Y017924D01*
X021377Y018369D02*
X021427Y018398D01*
X021468Y018439D01*
X021497Y018489D01*
X021512Y018545D01*
X021512Y018811D01*
X021512Y019076D01*
X021497Y019132D01*
X021468Y019182D01*
X021427Y019223D01*
X021377Y019252D01*
X021321Y019267D01*
X021017Y019267D01*
X021017Y018811D01*
X021017Y018811D01*
X021512Y018811D01*
X021017Y018811D01*
X021017Y018811D01*
X021017Y019267D01*
X020712Y019267D01*
X020656Y019252D01*
X020606Y019223D01*
X020565Y019182D01*
X020536Y019132D01*
X020521Y019076D01*
X020521Y018811D01*
X021017Y018811D01*
X021017Y018811D01*
X021017Y018354D01*
X021321Y018354D01*
X021377Y018369D01*
X021430Y018401D02*
X022417Y018401D01*
X022417Y018639D02*
X021512Y018639D01*
X021512Y018878D02*
X022417Y018878D01*
X022417Y019116D02*
X021501Y019116D01*
X021017Y019116D02*
X021017Y019116D01*
X021017Y018878D02*
X021017Y018878D01*
X021017Y018811D02*
X020521Y018811D01*
X020521Y018545D01*
X020536Y018489D01*
X020565Y018439D01*
X020606Y018398D01*
X020656Y018369D01*
X020712Y018354D01*
X021017Y018354D01*
X021017Y018811D01*
X021017Y018811D01*
X021017Y018639D02*
X021017Y018639D01*
X021017Y018401D02*
X021017Y018401D01*
X020604Y018401D02*
X019680Y018401D01*
X019677Y018398D02*
X019718Y018439D01*
X019747Y018489D01*
X019762Y018545D01*
X019762Y018811D01*
X019762Y019076D01*
X019747Y019132D01*
X019718Y019182D01*
X019677Y019223D01*
X019627Y019252D01*
X019571Y019267D01*
X019267Y019267D01*
X019267Y018811D01*
X019267Y018811D01*
X019762Y018811D01*
X019267Y018811D01*
X019267Y018811D01*
X019267Y019267D01*
X018962Y019267D01*
X018906Y019252D01*
X018856Y019223D01*
X018815Y019182D01*
X018786Y019132D01*
X018771Y019076D01*
X018771Y018811D01*
X019267Y018811D01*
X019267Y018811D01*
X019267Y018354D01*
X019571Y018354D01*
X019627Y018369D01*
X019677Y018398D01*
X019762Y018639D02*
X020521Y018639D01*
X020521Y018878D02*
X019762Y018878D01*
X019751Y019116D02*
X020532Y019116D01*
X019617Y018046D02*
X019722Y017940D01*
X019722Y017319D01*
X019617Y017213D01*
X019246Y017213D01*
X018777Y016683D01*
X018777Y016662D01*
X018827Y016662D01*
X018933Y016556D01*
X018933Y016092D01*
X018827Y015987D01*
X018206Y015987D01*
X018100Y016092D01*
X018100Y016556D01*
X018206Y016662D01*
X018257Y016662D01*
X018257Y016773D01*
X018254Y016817D01*
X018257Y016824D01*
X018257Y016833D01*
X018273Y016873D01*
X018288Y016914D01*
X018293Y016921D01*
X018296Y016928D01*
X018327Y016959D01*
X018811Y017507D01*
X018811Y017940D01*
X018917Y018046D01*
X019617Y018046D01*
X019722Y017924D02*
X020561Y017924D01*
X020561Y017685D02*
X019722Y017685D01*
X019722Y017447D02*
X020499Y017447D01*
X020281Y017208D02*
X019241Y017208D01*
X019030Y016970D02*
X020064Y016970D01*
X019847Y016731D02*
X018819Y016731D01*
X018933Y016493D02*
X019600Y016493D01*
X019600Y016254D02*
X018933Y016254D01*
X018856Y016016D02*
X019677Y016016D01*
X019600Y015777D02*
X018933Y015777D01*
X018933Y015539D02*
X019600Y015539D01*
X019684Y015300D02*
X018849Y015300D01*
X018777Y015062D02*
X019757Y015062D01*
X019757Y014823D02*
X018777Y014823D01*
X018777Y014585D02*
X019757Y014585D01*
X019757Y014346D02*
X018777Y014346D01*
X018777Y014108D02*
X019757Y014108D01*
X019757Y013869D02*
X018777Y013869D01*
X018974Y013631D02*
X019757Y013631D01*
X019757Y013392D02*
X019375Y013392D01*
X019375Y013154D02*
X019757Y013154D01*
X019757Y012915D02*
X019322Y012915D01*
X019190Y012690D02*
X018892Y012690D01*
X018892Y011970D01*
X019612Y011970D01*
X019612Y012268D01*
X019190Y012690D01*
X019203Y012677D02*
X019757Y012677D01*
X019757Y012438D02*
X019442Y012438D01*
X019612Y012200D02*
X019757Y012200D01*
X019757Y011961D02*
X019612Y011961D01*
X019612Y011970D02*
X018892Y011970D01*
X018892Y011970D01*
X018892Y011970D01*
X018892Y011250D01*
X019190Y011250D01*
X019612Y011672D01*
X019612Y011970D01*
X019612Y011723D02*
X019757Y011723D01*
X019757Y011484D02*
X019424Y011484D01*
X019674Y011246D02*
X013910Y011246D01*
X013914Y011250D02*
X013914Y011250D01*
X014027Y011484D02*
X018359Y011484D01*
X018172Y011672D02*
X018593Y011250D01*
X018892Y011250D01*
X018892Y011970D01*
X018892Y011970D01*
X018892Y012690D01*
X018593Y012690D01*
X018172Y012268D01*
X018172Y011970D01*
X018172Y011672D01*
X018172Y011723D02*
X014027Y011723D01*
X014027Y011961D02*
X018172Y011961D01*
X018172Y011970D02*
X018892Y011970D01*
X018892Y011970D01*
X018172Y011970D01*
X018172Y012200D02*
X014027Y012200D01*
X013540Y012815D02*
X013527Y012828D01*
X013527Y013168D01*
X013527Y013272D01*
X013487Y013367D01*
X013242Y013612D01*
X013269Y013612D01*
X013375Y013717D01*
X013375Y014223D01*
X013269Y014328D01*
X012764Y014328D01*
X012666Y014230D01*
X011215Y014230D01*
X011119Y014190D01*
X011046Y014117D01*
X010779Y013850D01*
X009958Y013850D01*
X009958Y014623D01*
X009983Y014667D01*
X009998Y014723D01*
X009998Y014850D01*
X009998Y014905D01*
X011159Y014905D01*
X011159Y014467D01*
X011264Y014362D01*
X011769Y014362D01*
X011875Y014467D01*
X011875Y014973D01*
X011769Y015078D01*
X011712Y015078D01*
X011712Y015535D01*
X013068Y015535D01*
X013092Y015545D01*
X013535Y015545D01*
X013535Y015480D01*
X014050Y015480D01*
X014050Y015480D01*
X013535Y015480D01*
X013535Y015352D01*
X013550Y015296D01*
X013575Y015253D01*
X013575Y013187D01*
X013550Y013143D01*
X013535Y013088D01*
X013535Y012960D01*
X013535Y012833D01*
X013540Y012815D01*
X013527Y012915D02*
X013535Y012915D01*
X013535Y012960D02*
X014050Y012960D01*
X014050Y012960D01*
X013535Y012960D01*
X013527Y013154D02*
X013556Y013154D01*
X013575Y013392D02*
X013462Y013392D01*
X013575Y013631D02*
X013288Y013631D01*
X013375Y013869D02*
X013575Y013869D01*
X013575Y014108D02*
X013375Y014108D01*
X013575Y014346D02*
X009958Y014346D01*
X009958Y014108D02*
X011036Y014108D01*
X010798Y013869D02*
X009958Y013869D01*
X009958Y014585D02*
X011159Y014585D01*
X011159Y014823D02*
X009998Y014823D01*
X009998Y014850D02*
X009483Y014850D01*
X009483Y014850D01*
X008968Y014850D01*
X008968Y014977D01*
X008983Y015033D01*
X009008Y015077D01*
X009008Y015210D01*
X008867Y015210D01*
X008769Y015112D01*
X008264Y015112D01*
X008159Y015217D01*
X008159Y015233D01*
X008119Y015250D01*
X007753Y015616D01*
X007772Y015570D01*
X007772Y015370D01*
X007761Y015343D01*
X008309Y014795D01*
X008968Y014795D01*
X008968Y014850D01*
X009483Y014850D01*
X009998Y014850D01*
X009483Y014850D02*
X009483Y014850D01*
X008968Y014823D02*
X008281Y014823D01*
X008043Y015062D02*
X008999Y015062D01*
X008069Y015300D02*
X007804Y015300D01*
X007830Y015539D02*
X007772Y015539D01*
X007546Y014823D02*
X006987Y014823D01*
X006997Y014108D02*
X007536Y014108D01*
X007775Y014346D02*
X006143Y014346D01*
X006134Y014585D02*
X007784Y014585D01*
X008795Y013631D02*
X009008Y013631D01*
X009008Y013392D02*
X008556Y013392D01*
X008318Y013154D02*
X009008Y013154D01*
X009008Y012915D02*
X008079Y012915D01*
X009008Y012677D02*
X004328Y012677D01*
X004567Y012438D02*
X009042Y012438D01*
X007441Y011007D02*
X007132Y011007D01*
X007132Y011025D02*
X007117Y011081D01*
X007088Y011131D01*
X007047Y011172D01*
X006997Y011201D01*
X006941Y011216D01*
X006676Y011216D01*
X006411Y011216D01*
X006355Y011201D01*
X006305Y011172D01*
X006264Y011131D01*
X006235Y011081D01*
X006220Y011025D01*
X006220Y010720D01*
X006220Y010415D01*
X006235Y010359D01*
X006264Y010309D01*
X006305Y010268D01*
X006355Y010239D01*
X006411Y010224D01*
X006676Y010224D01*
X006676Y010720D01*
X006220Y010720D01*
X006676Y010720D01*
X006676Y010720D01*
X006676Y011216D01*
X006676Y010720D01*
X006676Y010720D01*
X006676Y010720D01*
X006676Y010224D01*
X006941Y010224D01*
X006997Y010239D01*
X007047Y010268D01*
X007088Y010309D01*
X007117Y010359D01*
X007132Y010415D01*
X007132Y010720D01*
X007132Y011025D01*
X007132Y010769D02*
X007441Y010769D01*
X007441Y010530D02*
X007132Y010530D01*
X007132Y010720D02*
X006676Y010720D01*
X007132Y010720D01*
X007071Y010292D02*
X007519Y010292D01*
X007447Y009576D02*
X007119Y009576D01*
X007132Y009338D02*
X007441Y009338D01*
X007441Y009099D02*
X007132Y009099D01*
X007132Y009220D02*
X006676Y009220D01*
X006220Y009220D01*
X006676Y009220D01*
X006676Y009220D01*
X006676Y009716D01*
X006676Y009220D01*
X006676Y009220D01*
X007132Y009220D01*
X007118Y008861D02*
X007450Y008861D01*
X007345Y008622D02*
X010551Y008622D01*
X010312Y008384D02*
X007584Y008384D01*
X007822Y008145D02*
X010074Y008145D01*
X009869Y007940D02*
X009869Y007940D01*
X009835Y007907D02*
X008061Y007907D01*
X008785Y007668D02*
X009757Y007668D01*
X009757Y007430D02*
X008785Y007430D01*
X007088Y008809D02*
X007088Y008809D01*
X006676Y009220D02*
X006676Y009220D01*
X006676Y009338D02*
X006676Y009338D01*
X006676Y009576D02*
X006676Y009576D01*
X006234Y009576D02*
X004334Y009576D01*
X004061Y009338D02*
X006220Y009338D01*
X006220Y009099D02*
X004173Y009099D01*
X004176Y008861D02*
X006235Y008861D01*
X006282Y010292D02*
X004546Y010292D01*
X004418Y010530D02*
X006220Y010530D01*
X006220Y010769D02*
X004043Y010769D01*
X003741Y010769D02*
X001822Y010769D01*
X001857Y011007D02*
X006220Y011007D01*
X006676Y011007D02*
X006676Y011007D01*
X006676Y010769D02*
X006676Y010769D01*
X006676Y010720D02*
X006676Y010720D01*
X006676Y010530D02*
X006676Y010530D01*
X006676Y010292D02*
X006676Y010292D01*
X003892Y011484D02*
X003892Y011484D01*
X003892Y011723D02*
X003892Y011723D01*
X003892Y011961D02*
X003892Y011961D01*
X003892Y012095D02*
X003892Y012095D01*
X003892Y012200D02*
X003892Y012200D01*
X003892Y012438D02*
X003892Y012438D01*
X003892Y012677D02*
X003892Y012677D01*
X005491Y014346D02*
X005599Y014346D01*
X005608Y014585D02*
X005482Y014585D01*
X005691Y015777D02*
X006860Y015777D01*
X007386Y016493D02*
X006183Y016493D01*
X006183Y016731D02*
X007138Y016731D01*
X006899Y016970D02*
X000362Y016970D01*
X000362Y017208D02*
X005350Y017208D01*
X005350Y017447D02*
X000362Y017447D01*
X000362Y017685D02*
X005507Y017685D01*
X005507Y017924D02*
X000362Y017924D01*
X000362Y018162D02*
X000937Y018162D01*
X000910Y018188D02*
X001065Y018034D01*
X001267Y017950D01*
X001486Y017950D01*
X001688Y018034D01*
X001843Y018188D01*
X001927Y018391D01*
X001927Y018609D01*
X001843Y018812D01*
X001688Y018966D01*
X001486Y019050D01*
X001267Y019050D01*
X001065Y018966D01*
X000910Y018812D01*
X000827Y018609D01*
X000827Y018391D01*
X000910Y018188D01*
X000827Y018401D02*
X000362Y018401D01*
X000362Y018639D02*
X000839Y018639D01*
X000976Y018878D02*
X000362Y018878D01*
X000362Y019116D02*
X006217Y019116D01*
X006217Y018878D02*
X003557Y018878D01*
X003623Y018812D02*
X003468Y018966D01*
X003266Y019050D01*
X003047Y019050D01*
X002845Y018966D01*
X002690Y018812D01*
X002607Y018609D01*
X002607Y018391D01*
X002690Y018188D01*
X002845Y018034D01*
X003047Y017950D01*
X003266Y017950D01*
X003468Y018034D01*
X003623Y018188D01*
X003707Y018391D01*
X003707Y018609D01*
X003623Y018812D01*
X003694Y018639D02*
X006068Y018639D01*
X005829Y018401D02*
X003707Y018401D01*
X003597Y018162D02*
X005591Y018162D01*
X005619Y018190D02*
X005619Y018190D01*
X006088Y017924D02*
X006217Y017924D01*
X006217Y017685D02*
X006027Y017685D01*
X006183Y017447D02*
X006296Y017447D01*
X006183Y017208D02*
X006661Y017208D01*
X005350Y016731D02*
X000362Y016731D01*
X001377Y016254D02*
X001377Y016254D01*
X001377Y016016D02*
X001377Y016016D01*
X001377Y015940D02*
X001377Y015940D01*
X001377Y015777D02*
X001377Y015777D01*
X001377Y015539D02*
X001377Y015539D01*
X001810Y015539D02*
X002780Y015539D01*
X002629Y015777D02*
X001944Y015777D01*
X001962Y016016D02*
X002607Y016016D01*
X002693Y016254D02*
X001878Y016254D01*
X001817Y018162D02*
X002717Y018162D01*
X002607Y018401D02*
X001927Y018401D01*
X001914Y018639D02*
X002619Y018639D01*
X002756Y018878D02*
X001777Y018878D01*
X000362Y019355D02*
X006373Y019355D01*
X007022Y019593D02*
X000362Y019593D01*
X000362Y019832D02*
X007260Y019832D01*
X008767Y018970D02*
X009357Y018970D01*
X009357Y019214D01*
X009111Y019460D01*
X009159Y019460D01*
X011192Y017427D01*
X011192Y016979D01*
X011082Y016979D01*
X011082Y017467D01*
X011042Y017562D01*
X010737Y017867D01*
X010664Y017940D01*
X010568Y017980D01*
X009465Y017980D01*
X009369Y017940D01*
X009317Y017888D01*
X009317Y018198D01*
X009073Y018442D01*
X009357Y018726D01*
X009357Y018970D01*
X008767Y018970D01*
X008767Y018970D01*
X009217Y019355D02*
X009264Y019355D01*
X009357Y019116D02*
X009503Y019116D01*
X009357Y018878D02*
X009741Y018878D01*
X009980Y018639D02*
X009270Y018639D01*
X009114Y018401D02*
X010218Y018401D01*
X010457Y018162D02*
X009317Y018162D01*
X009317Y017924D02*
X009352Y017924D01*
X010681Y017924D02*
X010695Y017924D01*
X010919Y017685D02*
X010934Y017685D01*
X011082Y017447D02*
X011172Y017447D01*
X011192Y017208D02*
X011082Y017208D01*
X011431Y017924D02*
X011526Y017924D01*
X011575Y018162D02*
X011192Y018162D01*
X010954Y018401D02*
X012360Y018401D01*
X012621Y018401D02*
X012621Y018401D01*
X012621Y018426D02*
X012621Y017970D01*
X012621Y017970D01*
X012621Y018426D01*
X012882Y018401D02*
X012921Y018401D01*
X013008Y018639D02*
X010715Y018639D01*
X010477Y018878D02*
X013944Y018878D01*
X013966Y019116D02*
X010238Y019116D01*
X010000Y019355D02*
X014139Y019355D01*
X014069Y019593D02*
X016465Y019593D01*
X016465Y019832D02*
X014069Y019832D01*
X014069Y020070D02*
X016465Y020070D01*
X016465Y020309D02*
X014069Y020309D01*
X014069Y020547D02*
X016465Y020547D01*
X017612Y020547D02*
X022417Y020547D01*
X022417Y020309D02*
X017612Y020309D01*
X017612Y020070D02*
X022417Y020070D01*
X022417Y019832D02*
X017612Y019832D01*
X017612Y019593D02*
X022417Y019593D01*
X022417Y019355D02*
X016395Y019355D01*
X016567Y019116D02*
X018782Y019116D01*
X018771Y018878D02*
X016589Y018878D01*
X016570Y018658D02*
X016465Y018552D01*
X016465Y017419D01*
X016570Y017314D01*
X017507Y017314D01*
X017612Y017419D01*
X017612Y018552D01*
X017507Y018658D01*
X016570Y018658D01*
X016551Y018639D02*
X016448Y018639D01*
X016465Y018401D02*
X016175Y018401D01*
X016175Y018162D02*
X016465Y018162D01*
X016465Y017924D02*
X016175Y017924D01*
X016175Y017685D02*
X016465Y017685D01*
X016465Y017447D02*
X016175Y017447D01*
X016157Y017208D02*
X018547Y017208D01*
X018336Y016970D02*
X016281Y016970D01*
X017121Y016926D02*
X017121Y016470D01*
X017121Y016470D01*
X017121Y016470D01*
X017121Y016926D01*
X017121Y016731D02*
X017121Y016731D01*
X017498Y016731D02*
X018257Y016731D01*
X018100Y016493D02*
X017498Y016493D01*
X017498Y016254D02*
X018100Y016254D01*
X018177Y016016D02*
X017314Y016016D01*
X017121Y016016D02*
X017121Y016016D01*
X017121Y016014D02*
X017121Y016470D01*
X017121Y016470D01*
X017121Y016014D01*
X016928Y016016D02*
X016672Y016016D01*
X017121Y016254D02*
X017121Y016254D01*
X017121Y016493D02*
X017121Y016493D01*
X017612Y017447D02*
X018758Y017447D01*
X018811Y017685D02*
X017612Y017685D01*
X017612Y017924D02*
X018811Y017924D01*
X018906Y018369D02*
X018856Y018398D01*
X018815Y018439D01*
X018786Y018489D01*
X018771Y018545D01*
X018771Y018811D01*
X019267Y018811D01*
X019267Y018811D01*
X019267Y018354D01*
X018962Y018354D01*
X018906Y018369D01*
X018854Y018401D02*
X017612Y018401D01*
X017612Y018162D02*
X022417Y018162D01*
X019267Y018401D02*
X019267Y018401D01*
X019267Y018639D02*
X019267Y018639D01*
X019267Y018878D02*
X019267Y018878D01*
X019267Y019116D02*
X019267Y019116D01*
X018771Y018639D02*
X017525Y018639D01*
X015871Y019355D02*
X014663Y019355D01*
X014835Y019116D02*
X015698Y019116D01*
X015676Y018878D02*
X014857Y018878D01*
X014318Y018401D02*
X014069Y018401D01*
X014085Y018639D02*
X013982Y018639D01*
X014069Y018162D02*
X014318Y018162D01*
X014318Y017924D02*
X014069Y017924D01*
X014069Y017685D02*
X014318Y017685D01*
X012921Y017565D02*
X012921Y017480D01*
X012345Y017480D01*
X012249Y017440D01*
X012176Y017367D01*
X012137Y017272D01*
X012137Y017019D01*
X012082Y017019D01*
X012082Y016503D01*
X012082Y016503D01*
X012082Y017019D01*
X012027Y017019D01*
X012027Y017554D01*
X012144Y017554D01*
X012250Y017659D01*
X012250Y017681D01*
X012259Y017649D01*
X012287Y017599D01*
X012328Y017558D01*
X012379Y017529D01*
X012435Y017514D01*
X012621Y017514D01*
X012807Y017514D01*
X012863Y017529D01*
X012914Y017558D01*
X012921Y017565D01*
X012621Y017514D02*
X012621Y017970D01*
X012621Y017970D01*
X012621Y017514D01*
X012621Y017685D02*
X012621Y017685D01*
X012621Y017924D02*
X012621Y017924D01*
X012621Y018162D02*
X012621Y018162D01*
X012264Y017447D02*
X012027Y017447D01*
X012027Y017208D02*
X012137Y017208D01*
X012082Y016970D02*
X012082Y016970D01*
X012082Y016731D02*
X012082Y016731D01*
X013077Y015539D02*
X013535Y015539D01*
X013549Y015300D02*
X011712Y015300D01*
X011786Y015062D02*
X013575Y015062D01*
X013575Y014823D02*
X011875Y014823D01*
X011875Y014585D02*
X013575Y014585D01*
X014525Y014585D02*
X014902Y014585D01*
X014902Y014823D02*
X014525Y014823D01*
X014525Y015062D02*
X014990Y015062D01*
X015015Y015086D02*
X014942Y015013D01*
X014902Y014917D01*
X014902Y013358D01*
X014825Y013281D01*
X014825Y013000D01*
X014730Y012905D01*
X014565Y012905D01*
X014565Y012960D01*
X014050Y012960D01*
X014050Y012960D01*
X014565Y012960D01*
X014565Y013088D01*
X014550Y013143D01*
X014525Y013187D01*
X014525Y015253D01*
X014550Y015296D01*
X014565Y015352D01*
X014565Y015480D01*
X014565Y015535D01*
X014834Y015535D01*
X015149Y015220D01*
X015015Y015086D01*
X015015Y015086D01*
X015069Y015300D02*
X014551Y015300D01*
X014565Y015480D02*
X014050Y015480D01*
X014565Y015480D01*
X014050Y015480D02*
X014050Y015480D01*
X014525Y014346D02*
X014902Y014346D01*
X014902Y014108D02*
X014525Y014108D01*
X014525Y013869D02*
X014902Y013869D01*
X014902Y013631D02*
X014525Y013631D01*
X014525Y013392D02*
X014902Y013392D01*
X014825Y013154D02*
X014545Y013154D01*
X014565Y012915D02*
X014740Y012915D01*
X014998Y012438D02*
X018341Y012438D01*
X018580Y012677D02*
X016241Y012677D01*
X016248Y012915D02*
X018711Y012915D01*
X018659Y013154D02*
X016248Y013154D01*
X016147Y013392D02*
X018477Y013392D01*
X018272Y013631D02*
X015422Y013631D01*
X015422Y013869D02*
X018257Y013869D01*
X018257Y014108D02*
X015422Y014108D01*
X015422Y014346D02*
X018257Y014346D01*
X018257Y014585D02*
X015422Y014585D01*
X015487Y014823D02*
X018257Y014823D01*
X018257Y015062D02*
X016476Y015062D01*
X016487Y015073D02*
X016487Y015073D01*
X016667Y015300D02*
X018184Y015300D01*
X020277Y014346D02*
X021115Y014346D01*
X020978Y014108D02*
X020277Y014108D01*
X020277Y013869D02*
X020967Y013869D01*
X021078Y013631D02*
X020277Y013631D01*
X020277Y013392D02*
X021161Y013392D01*
X020997Y013154D02*
X020277Y013154D01*
X020277Y012915D02*
X020967Y012915D01*
X021043Y012677D02*
X020277Y012677D01*
X020277Y012438D02*
X021209Y012438D01*
X021016Y012200D02*
X020277Y012200D01*
X020277Y011961D02*
X020967Y011961D01*
X021024Y011723D02*
X020277Y011723D01*
X020277Y011484D02*
X021226Y011484D01*
X020995Y011246D02*
X020277Y011246D01*
X020171Y011007D02*
X020927Y011007D01*
X020927Y010970D02*
X021517Y010970D01*
X021517Y010970D01*
X020927Y010970D01*
X020962Y010769D02*
X019933Y010769D01*
X019694Y010530D02*
X021122Y010530D01*
X021060Y010292D02*
X019495Y010292D01*
X019572Y010053D02*
X020967Y010053D01*
X020986Y009815D02*
X019563Y009815D01*
X018642Y009338D02*
X016563Y009338D01*
X016563Y009220D02*
X016107Y009220D01*
X016107Y009220D01*
X016107Y009716D01*
X016107Y009220D01*
X016107Y009220D01*
X016107Y009220D01*
X016563Y009220D01*
X016563Y009099D02*
X018611Y009099D01*
X018607Y008861D02*
X016549Y008861D01*
X016107Y009338D02*
X016107Y009338D01*
X016107Y009576D02*
X016107Y009576D01*
X016550Y009576D02*
X018324Y009576D01*
X018289Y010292D02*
X016502Y010292D01*
X016519Y010309D02*
X016548Y010359D01*
X016563Y010415D01*
X016563Y010720D01*
X016563Y011025D01*
X016548Y011081D01*
X016519Y011131D01*
X016479Y011172D01*
X016428Y011201D01*
X016372Y011216D01*
X016107Y011216D01*
X015842Y011216D01*
X015786Y011201D01*
X015736Y011172D01*
X015695Y011131D01*
X015666Y011081D01*
X015651Y011025D01*
X015651Y010720D01*
X016107Y010720D01*
X015651Y010720D01*
X015651Y010415D01*
X015666Y010359D01*
X015695Y010309D01*
X015736Y010268D01*
X015786Y010239D01*
X015842Y010224D01*
X016107Y010224D01*
X016107Y010720D01*
X016107Y010720D01*
X016107Y010720D01*
X016107Y011216D01*
X016107Y010720D01*
X016107Y010720D01*
X016107Y010224D01*
X016372Y010224D01*
X016428Y010239D01*
X016479Y010268D01*
X016519Y010309D01*
X016563Y010530D02*
X018490Y010530D01*
X019197Y010769D02*
X016563Y010769D01*
X016563Y010720D02*
X016107Y010720D01*
X016107Y010720D01*
X016563Y010720D01*
X016563Y011007D02*
X019436Y011007D01*
X018892Y011484D02*
X018892Y011484D01*
X018892Y011723D02*
X018892Y011723D01*
X018892Y011961D02*
X018892Y011961D01*
X018892Y012200D02*
X018892Y012200D01*
X018892Y012438D02*
X018892Y012438D01*
X018892Y012677D02*
X018892Y012677D01*
X021517Y010970D02*
X021517Y010970D01*
X021163Y006953D02*
X020431Y006953D01*
X020431Y006714D02*
X021123Y006714D01*
X021129Y006476D02*
X020431Y006476D01*
X020431Y006237D02*
X021123Y006237D01*
X021123Y005999D02*
X020431Y005999D01*
X021599Y005999D02*
X021599Y005999D01*
X021599Y005901D02*
X021599Y005901D01*
X021599Y006237D02*
X021599Y006237D01*
X021599Y006476D02*
X021599Y006476D01*
X021599Y003375D02*
X021599Y003375D01*
X021599Y003137D02*
X021599Y003137D01*
X021599Y002898D02*
X021599Y002898D01*
X021123Y002898D02*
X020431Y002898D01*
X020431Y002660D02*
X021123Y002660D01*
X021163Y002421D02*
X020431Y002421D01*
X020431Y002183D02*
X020748Y002183D01*
X020510Y001944D02*
X020431Y001944D01*
X020431Y003137D02*
X021123Y003137D01*
X021124Y003375D02*
X020431Y003375D01*
X016107Y010292D02*
X016107Y010292D01*
X016107Y010530D02*
X016107Y010530D01*
X016107Y010769D02*
X016107Y010769D01*
X016107Y011007D02*
X016107Y011007D01*
X015651Y011007D02*
X015342Y011007D01*
X015342Y010769D02*
X015651Y010769D01*
X015651Y010530D02*
X015342Y010530D01*
X015264Y010292D02*
X015713Y010292D01*
X014510Y011007D02*
X014458Y011007D01*
X013784Y011007D02*
X013750Y011007D01*
X013750Y010769D02*
X013784Y010769D01*
X013784Y010530D02*
X013750Y010530D01*
X013075Y010530D02*
X012027Y010530D01*
X012027Y010769D02*
X013075Y010769D01*
X013075Y011007D02*
X012027Y011007D01*
X012027Y011246D02*
X013185Y011246D01*
X015422Y013392D02*
X015595Y013392D01*
X015871Y013392D02*
X015871Y013392D01*
X015871Y013426D02*
X015871Y012970D01*
X015871Y012970D01*
X015871Y012970D01*
X015871Y013426D01*
X015871Y013154D02*
X015871Y013154D01*
X015871Y012970D02*
X015871Y012514D01*
X015871Y012970D01*
X015871Y012970D01*
X015871Y012915D02*
X015871Y012915D01*
X015871Y012677D02*
X015871Y012677D01*
X015501Y012677D02*
X015500Y012677D01*
X012921Y019593D02*
X009761Y019593D01*
X009523Y019832D02*
X012921Y019832D01*
X012921Y020070D02*
X000362Y020070D01*
X000362Y020309D02*
X012921Y020309D01*
X012921Y020547D02*
X000362Y020547D01*
X001267Y010970D02*
X001267Y010970D01*
X001661Y010530D02*
X003365Y010530D01*
X003237Y010292D02*
X001723Y010292D01*
X001817Y010053D02*
X003212Y010053D01*
X003272Y009815D02*
X001798Y009815D01*
D33*
X005967Y004720D02*
X005967Y002769D01*
X007767Y000970D01*
X011267Y000970D01*
X011267Y002470D01*
X011517Y002470D01*
X011517Y000970D01*
X015017Y000970D01*
X016816Y002769D01*
X016816Y004720D01*
X011517Y000970D02*
X011267Y000970D01*
D34*
X007767Y000970D02*
X007517Y000720D01*
X006121Y000720D01*
X015017Y000970D02*
X015267Y000720D01*
X016662Y000720D01*
D35*
X016517Y004720D02*
X017267Y004720D01*
X017017Y005220D02*
X017017Y007720D01*
X019217Y007470D02*
X019217Y006360D01*
X019217Y007470D02*
X019217Y008470D01*
X019217Y008970D01*
X021517Y008970D01*
X017017Y005220D02*
X016517Y004720D01*
X006117Y004870D02*
X005767Y005220D01*
X005767Y007720D01*
X003566Y007470D02*
X003566Y006360D01*
X003566Y007470D02*
X003566Y008470D01*
X003566Y008970D01*
X001267Y008970D01*
M02*
