%
M48
M72
T01C0.0236
T02C0.0276
T03C0.0354
T04C0.0400
%
T01
X517Y2220
X517Y2720
X517Y3220
X517Y3720
X517Y4220
X517Y4720
X517Y5220
X517Y5720
X517Y6220
X517Y6720
X517Y7220
X2017Y6970
X2017Y6470
X2017Y5970
X2017Y3470
X2017Y2970
X2017Y2470
X2767Y1470
X3267Y1470
X3767Y1470
X4267Y1470
X4517Y720
X9017Y1970
X9517Y1970
X10517Y3720
X12267Y3720
X13267Y1970
X13767Y1970
X12267Y5720
X10517Y5720
X10767Y7470
X12017Y7470
X10267Y10720
X11767Y12970
X12767Y12970
X13017Y13970
X12767Y14970
X11517Y14720
X10267Y17220
X8517Y15470
X15767Y11720
X19017Y13220
X17017Y7720
X17017Y7220
X20767Y6970
X20767Y6470
X20767Y5970
X22267Y5720
X22267Y5220
X22267Y4720
X22267Y4220
X22267Y3720
X22267Y3220
X22267Y2720
X22267Y2220
X20767Y2470
X20767Y2970
X20767Y3470
X20017Y1470
X19517Y1470
X19017Y1470
X18517Y1470
X18267Y720
X22267Y6220
X22267Y6720
X22267Y7220
X5767Y7220
X5767Y7720
T02
X7267Y13470
X7267Y15470
T03
X14401Y18970
X16133Y18970
T04
X1377Y18500
X3157Y18500
X3157Y15940
X1377Y15940
X1267Y13970
X1267Y12970
X1267Y11970
X1267Y10970
X1267Y9970
X1267Y8970
X3892Y10095
X3892Y12095
X6767Y17970
X7767Y17970
X8767Y17970
X8767Y18970
X7767Y18970
X6767Y18970
X18892Y11970
X18892Y9970
X21517Y9970
X21517Y8970
X21517Y10970
X21517Y11970
X21517Y12970
X21517Y13970
M30
